<?xml version="1.0" encoding="utf-8" standalone="no"?>
<!DOCTYPE svg PUBLIC "-//W3C//DTD SVG 1.1//EN"
  "http://www.w3.org/Graphics/SVG/1.1/DTD/svg11.dtd">
<svg xmlns:xlink="http://www.w3.org/1999/xlink" width="656.39952pt" height="265.787564pt" viewBox="0 0 656.39952 265.787564" xmlns="http://www.w3.org/2000/svg" version="1.1">
 <metadata>
  <rdf:RDF xmlns:dc="http://purl.org/dc/elements/1.1/" xmlns:cc="http://creativecommons.org/ns#" xmlns:rdf="http://www.w3.org/1999/02/22-rdf-syntax-ns#">
   <cc:Work>
    <dc:type rdf:resource="http://purl.org/dc/dcmitype/StillImage"/>
    <dc:format>image/svg+xml</dc:format>
    <dc:creator>
     <cc:Agent>
      <dc:title>祭音Myyura</dc:title>
     </cc:Agent>
    </dc:creator>
   </cc:Work>
  </rdf:RDF>
 </metadata>
 <defs>
  <style type="text/css">*{stroke-linejoin: round; stroke-linecap: butt}</style>
 </defs>
 <g id="figure_1">
  <g id="patch_1">
   <path d="M 0 265.787564
L 656.39952 265.787564
L 656.39952 0
L 0 0
z
" style="fill: #ffffff"/>
  </g>
  <g id="axes_1">
   <g id="patch_2">
    <path d="M 335.178016 216.71803
L 335.178016 215.981632
L 335.178016 215.245233
L 335.178016 214.508834
L 335.178016 213.772435
L 335.178016 213.036036
L 335.178016 212.299637
L 335.178016 211.563239
L 335.178016 210.82684
L 335.178016 210.090441
L 335.178016 209.354042
L 335.178016 208.617643
L 335.178016 207.881244
L 335.178016 207.144846
L 335.178016 206.408447
L 335.178016 205.672048
L 335.178016 204.935649
L 335.178016 204.19925
L 335.178016 203.462851
L 335.178016 202.726453
L 335.178016 201.990054
L 335.178016 201.253655
L 335.178016 200.517256
L 335.178016 199.780857
L 335.178016 199.044458
L 335.178016 198.308059
L 335.178016 197.571661
L 335.178016 196.835262
L 335.178016 196.098863
L 335.178016 195.362464
L 335.178016 194.626065
L 335.178016 193.889666
L 335.178016 193.153268
L 335.178016 192.416869
L 335.178016 191.68047
L 335.178016 190.944071
L 335.178016 190.207672
L 335.178016 189.471273
L 335.178016 188.734875
L 335.178016 187.998476
L 335.178016 187.262077
L 335.178016 186.525678
L 335.178016 185.789279
L 335.178016 185.05288
L 335.178016 184.316482
L 335.178016 183.580083
L 335.178016 182.843684
L 335.178016 182.107285
L 335.178016 181.370886
L 335.178016 180.634487
L 335.178016 179.898089
L 335.178016 179.16169
L 335.178016 178.425291
L 335.178016 177.688892
L 335.178016 176.952493
L 335.178016 176.216094
L 335.178016 175.479696
L 335.178016 174.743297
L 335.178016 174.006898
L 335.178016 173.270499
L 335.178016 172.5341
L 335.178016 171.797701
L 335.178016 171.061302
L 335.178016 170.324904
L 335.178016 169.588505
L 335.178016 168.852106
L 335.178016 168.115707
L 335.178016 167.379308
L 335.178016 166.642909
L 335.178016 165.906511
L 335.178016 165.170112
L 335.178016 164.433713
L 335.178016 163.697314
L 335.178016 162.960915
L 335.178016 162.224516
L 335.178016 161.488118
L 335.178016 160.751719
L 335.178016 160.01532
L 335.178016 159.278921
L 335.178016 158.542522
L 335.178016 157.806123
L 335.178016 157.069725
L 335.178016 156.333326
L 335.178016 155.596927
L 335.178016 154.860528
L 335.178016 154.124129
L 335.178016 153.38773
L 335.178016 152.651332
L 335.178016 151.914933
L 335.178016 151.178534
L 335.178016 150.442135
L 335.178016 149.705736
L 335.178016 148.969337
L 335.178016 148.232939
L 335.178016 147.49654
L 335.178016 146.760141
L 335.178016 146.023742
L 335.178016 145.287343
L 335.178016 144.550944
L 335.178016 143.814546
L 335.178016 143.078147
L 335.178016 142.341748
L 335.178016 141.605349
L 335.178016 140.86895
L 335.178016 140.132551
L 335.178016 139.396152
L 335.178016 138.659754
L 335.178016 137.923355
L 335.178016 137.186956
L 335.178016 136.450557
L 335.178016 135.714158
L 335.178016 134.977759
L 335.178016 134.241361
L 335.178016 133.504962
L 335.178016 132.768563
L 335.178016 132.032164
L 335.178016 131.295765
L 335.178016 130.559366
L 335.178016 129.822968
L 335.178016 129.086569
L 335.178016 128.35017
L 335.178016 127.613771
L 335.178016 126.877372
L 335.178016 126.140973
L 335.178016 125.404575
L 335.178016 124.668176
L 335.178016 123.931777
L 335.178016 123.195378
L 335.178016 122.458979
L 335.178016 121.72258
L 335.178016 120.986182
L 335.178016 120.249783
L 335.178016 119.513384
L 335.178016 118.776985
L 335.178016 118.040586
L 335.178016 117.304187
L 335.178016 116.567789
L 335.178016 115.83139
L 335.178016 115.094991
L 335.178016 114.358592
L 335.178016 113.622193
L 335.178016 112.885794
L 335.178016 112.149395
L 335.178016 111.412997
L 335.178016 110.676598
L 335.178016 109.940199
L 335.178016 109.2038
L 335.178016 108.467401
L 335.178016 107.731002
L 335.178016 106.994604
L 335.178016 106.258205
L 335.178016 105.521806
L 335.178016 104.785407
L 335.178016 104.049008
L 335.178016 103.312609
L 335.178016 102.576211
L 335.178016 101.839812
L 335.178016 101.103413
L 335.178016 100.367014
L 335.178016 99.630615
L 335.178016 98.894216
L 335.178016 98.157818
L 335.178016 97.421419
L 335.178016 96.68502
L 335.178016 95.948621
L 335.178016 95.212222
L 335.178016 94.475823
L 335.178016 93.739425
L 335.178016 93.003026
L 335.178016 92.266627
L 335.178016 91.530228
L 335.178016 90.793829
L 335.178016 90.05743
L 335.178016 89.321032
L 335.178016 88.584633
L 335.178016 87.848234
L 335.178016 87.111835
L 335.178016 86.375436
L 335.178016 85.639037
L 335.178016 84.902638
L 335.178016 84.16624
L 335.178016 83.429841
L 335.178016 82.693442
L 335.178016 81.957043
L 335.178016 81.220644
L 335.178016 80.484245
L 335.178016 79.747847
L 335.178016 79.011448
L 335.178016 78.275049
L 335.178016 77.53865
L 335.178016 76.802251
L 335.178016 76.065852
L 335.178016 75.329454
L 335.178016 74.593055
L 335.178016 73.856656
L 335.178016 73.120257
L 335.178016 72.383858
L 335.178016 71.647459
L 335.178016 70.911061
L 335.178016 70.174662
L 336.727499 70.174662
L 337.178605 70.911061
L 337.623481 71.647459
L 338.062193 72.383858
L 338.494812 73.120257
L 338.921401 73.856656
L 339.342024 74.593055
L 339.756743 75.329454
L 340.165618 76.065852
L 340.568707 76.802251
L 340.966068 77.53865
L 341.357756 78.275049
L 341.743824 79.011448
L 342.124325 79.747847
L 342.499311 80.484245
L 342.86883 81.220644
L 343.232931 81.957043
L 343.591661 82.693442
L 343.945066 83.429841
L 344.293191 84.16624
L 344.636079 84.902638
L 344.973773 85.639037
L 345.306314 86.375436
L 345.633742 87.111835
L 345.956096 87.848234
L 346.273415 88.584633
L 346.585736 89.321032
L 346.893096 90.05743
L 347.195529 90.793829
L 347.49307 91.530228
L 347.785753 92.266627
L 348.07361 93.003026
L 348.356674 93.739425
L 348.634976 94.475823
L 348.908545 95.212222
L 349.177413 95.948621
L 349.441606 96.68502
L 349.701155 97.421419
L 349.956085 98.157818
L 350.206424 98.894216
L 350.452198 99.630615
L 350.693432 100.367014
L 350.93015 101.103413
L 351.162377 101.839812
L 351.390137 102.576211
L 351.613452 103.312609
L 351.832344 104.049008
L 352.046835 104.785407
L 352.256946 105.521806
L 352.462698 106.258205
L 352.664111 106.994604
L 352.861203 107.731002
L 353.053995 108.467401
L 353.242503 109.2038
L 353.426747 109.940199
L 353.606744 110.676598
L 353.78251 111.412997
L 353.954062 112.149395
L 354.121415 112.885794
L 354.284586 113.622193
L 354.443589 114.358592
L 354.598439 115.094991
L 354.74915 115.83139
L 354.895736 116.567789
L 355.038209 117.304187
L 355.176582 118.040586
L 355.310869 118.776985
L 355.441081 119.513384
L 355.567229 120.249783
L 355.689325 120.986182
L 355.80738 121.72258
L 355.921403 122.458979
L 356.031405 123.195378
L 356.137396 123.931777
L 356.239384 124.668176
L 356.337379 125.404575
L 356.431388 126.140973
L 356.521421 126.877372
L 356.607485 127.613771
L 356.689586 128.35017
L 356.767733 129.086569
L 356.841932 129.822968
L 356.91219 130.559366
L 356.978511 131.295765
L 357.040902 132.032164
L 357.099369 132.768563
L 357.153915 133.504962
L 357.204547 134.241361
L 357.251267 134.977759
L 357.29408 135.714158
L 357.332989 136.450557
L 357.367999 137.186956
L 357.399111 137.923355
L 357.426328 138.659754
L 357.449653 139.396152
L 357.469087 140.132551
L 357.484633 140.86895
L 357.496291 141.605349
L 357.504062 142.341748
L 357.507948 143.078147
L 357.507948 143.814546
L 357.504062 144.550944
L 357.496291 145.287343
L 357.484633 146.023742
L 357.469087 146.760141
L 357.449653 147.49654
L 357.426328 148.232939
L 357.399111 148.969337
L 357.367999 149.705736
L 357.332989 150.442135
L 357.29408 151.178534
L 357.251267 151.914933
L 357.204547 152.651332
L 357.153915 153.38773
L 357.099369 154.124129
L 357.040902 154.860528
L 356.978511 155.596927
L 356.91219 156.333326
L 356.841932 157.069725
L 356.767733 157.806123
L 356.689586 158.542522
L 356.607485 159.278921
L 356.521421 160.01532
L 356.431388 160.751719
L 356.337379 161.488118
L 356.239384 162.224516
L 356.137396 162.960915
L 356.031405 163.697314
L 355.921403 164.433713
L 355.80738 165.170112
L 355.689325 165.906511
L 355.567229 166.642909
L 355.441081 167.379308
L 355.310869 168.115707
L 355.176582 168.852106
L 355.038209 169.588505
L 354.895736 170.324904
L 354.74915 171.061302
L 354.598439 171.797701
L 354.443589 172.5341
L 354.284586 173.270499
L 354.121415 174.006898
L 353.954062 174.743297
L 353.78251 175.479696
L 353.606744 176.216094
L 353.426747 176.952493
L 353.242503 177.688892
L 353.053995 178.425291
L 352.861203 179.16169
L 352.664111 179.898089
L 352.462698 180.634487
L 352.256946 181.370886
L 352.046835 182.107285
L 351.832344 182.843684
L 351.613452 183.580083
L 351.390137 184.316482
L 351.162377 185.05288
L 350.93015 185.789279
L 350.693432 186.525678
L 350.452198 187.262077
L 350.206424 187.998476
L 349.956085 188.734875
L 349.701155 189.471273
L 349.441606 190.207672
L 349.177413 190.944071
L 348.908545 191.68047
L 348.634976 192.416869
L 348.356674 193.153268
L 348.07361 193.889666
L 347.785753 194.626065
L 347.49307 195.362464
L 347.195529 196.098863
L 346.893096 196.835262
L 346.585736 197.571661
L 346.273415 198.308059
L 345.956096 199.044458
L 345.633742 199.780857
L 345.306314 200.517256
L 344.973773 201.253655
L 344.636079 201.990054
L 344.293191 202.726453
L 343.945066 203.462851
L 343.591661 204.19925
L 343.232931 204.935649
L 342.86883 205.672048
L 342.499311 206.408447
L 342.124325 207.144846
L 341.743824 207.881244
L 341.357756 208.617643
L 340.966068 209.354042
L 340.568707 210.090441
L 340.165618 210.82684
L 339.756743 211.563239
L 339.342024 212.299637
L 338.921401 213.036036
L 338.494812 213.772435
L 338.062193 214.508834
L 337.623481 215.245233
L 337.178605 215.981632
L 336.727499 216.71803
z
" clip-path="url(#p7e5456f38c)" style="fill: #e7f3f9; stroke: #176b91; stroke-width: 1.5; stroke-linejoin: miter"/>
   </g>
   <g id="line2d_1">
    <path d="M 28.134767 143.446346
L 635.243009 143.446346
" clip-path="url(#p7e5456f38c)" style="fill: none; stroke: #94a3b8; stroke-width: 0.8; stroke-linecap: square"/>
   </g>
   <g id="line2d_2">
    <path d="M 335.178016 234.16367
L 335.178016 38.772511
" clip-path="url(#p7e5456f38c)" style="fill: none; stroke: #94a3b8; stroke-width: 0.8; stroke-linecap: square"/>
   </g>
   <g id="line2d_3">
    <path d="M 600.35173 227.185414
L 600.35173 38.772511
" clip-path="url(#p7e5456f38c)" style="fill: none; stroke-dasharray: 1.5,2.475; stroke-dashoffset: 0; stroke: #94a3b8; stroke-width: 1.5"/>
   </g>
   <g id="line2d_4">
    <path d="M 56.04779 143.446346
L 335.178016 192.294136
L 348.680898 192.294136
L 600.35173 143.446346
" clip-path="url(#p7e5456f38c)" style="fill: none; stroke: #d16b25; stroke-width: 1.5; stroke-linecap: square"/>
   </g>
   <g id="line2d_5">
    <path d="M 56.04779 143.446346
L 335.178016 94.598557
L 348.680898 94.598557
L 600.35173 143.446346
" clip-path="url(#p7e5456f38c)" style="fill: none; stroke: #d16b25; stroke-width: 1.5; stroke-linecap: square"/>
   </g>
   <g id="line2d_6">
    <path d="M 348.680898 94.598557
L 600.35173 91.109429
" clip-path="url(#p7e5456f38c)" style="fill: none; stroke-dasharray: 5.55,2.4; stroke-dashoffset: 0; stroke: #176b91; stroke-width: 1.5"/>
   </g>
   <g id="line2d_7">
    <defs>
     <path id="mb19323245f" d="M 0 2
C 0.530406 2 1.03916 1.789267 1.414214 1.414214
C 1.789267 1.03916 2 0.530406 2 0
C 2 -0.530406 1.789267 -1.03916 1.414214 -1.414214
C 1.03916 -1.789267 0.530406 -2 0 -2
C -0.530406 -2 -1.03916 -1.789267 -1.414214 -1.414214
C -1.789267 -1.03916 -2 -0.530406 -2 0
C -2 0.530406 -1.789267 1.03916 -1.414214 1.414214
C -1.03916 1.789267 -0.530406 2 0 2
z
" style="stroke: #253449"/>
    </defs>
    <g clip-path="url(#p7e5456f38c)">
     <use xlink:href="#mb19323245f" x="56.04779" y="143.446346" style="fill: #253449; stroke: #253449"/>
     <use xlink:href="#mb19323245f" x="335.178016" y="94.598557" style="fill: #253449; stroke: #253449"/>
     <use xlink:href="#mb19323245f" x="348.680898" y="94.598557" style="fill: #253449; stroke: #253449"/>
     <use xlink:href="#mb19323245f" x="600.35173" y="143.446346" style="fill: #253449; stroke: #253449"/>
     <use xlink:href="#mb19323245f" x="600.35173" y="91.109429" style="fill: #253449; stroke: #253449"/>
    </g>
   </g>
   <g id="text_1">
    <!-- A$(-a,0)$ -->
    <g transform="translate(56.04779 161.589811) scale(0.11 -0.11)">
     <defs>
      <path id="HiraginoSans-W4-22" d="M 4826 0
C 4730 166 4646 352 4486 742
L 3053 4326
C 2899 4710 2867 4806 2835 4934
L 2054 4934
C 2022 4781 1971 4634 1850 4326
L 422 742
C 269 358 198 205 83 0
L 858 0
C 902 230 954 397 1056 659
L 1363 1453
L 3546 1453
L 3859 659
C 3930 467 4006 218 4051 0
L 4826 0
z
M 3366 1978
L 1542 1978
L 2317 4026
C 2330 4058 2349 4122 2381 4211
C 2394 4256 2419 4333 2451 4422
C 2566 4083 2566 4083 2586 4026
L 3366 1978
z
" transform="scale(0.015625)"/>
      <path id="STIXGeneral-Regular-b" d="M 1946 -1030
L 1869 -1133
Q 1126 -710 716 32
Q 307 774 307 1613
Q 307 3386 1888 4326
L 1946 4224
Q 1293 3667 1075 3126
Q 858 2586 858 1632
Q 858 685 1082 96
Q 1306 -493 1946 -1030
z
" transform="scale(0.015625)"/>
      <path id="STIXGeneral-Regular-425" d="M 3974 1408
L 410 1408
L 410 1830
L 3974 1830
L 3974 1408
z
" transform="scale(0.015625)"/>
      <path id="STIXGeneral-Italic-44" d="M 2963 710
L 3046 640
Q 2688 205 2518 70
Q 2349 -64 2157 -64
Q 1901 -64 1901 198
Q 1901 358 2048 934
Q 1690 397 1389 163
Q 1088 -70 749 -70
Q 467 -70 288 125
Q 109 320 109 672
Q 109 1158 387 1664
Q 666 2170 1094 2496
Q 1523 2822 1939 2822
Q 2368 2822 2451 2451
L 2522 2758
L 2541 2778
L 2931 2822
L 2976 2803
Q 2970 2778 2938 2669
Q 2368 595 2368 346
Q 2368 262 2458 262
Q 2554 262 2790 525
L 2963 710
z
M 2336 2310
Q 2336 2477 2240 2579
Q 2144 2682 1978 2682
Q 1542 2682 1139 2093
Q 928 1779 787 1395
Q 646 1011 646 717
Q 646 243 1030 243
Q 1408 243 1843 870
Q 2336 1581 2336 2310
z
" transform="scale(0.015625)"/>
      <path id="STIXGeneral-Regular-f" d="M 531 -902
L 467 -781
Q 998 -422 998 -96
Q 998 -13 909 -13
Q 883 -13 822 -25
Q 762 -38 723 -38
Q 352 -38 352 288
Q 352 454 457 553
Q 563 653 736 653
Q 954 653 1101 496
Q 1248 339 1248 96
Q 1248 -198 1053 -473
Q 858 -749 531 -902
z
" transform="scale(0.015625)"/>
      <path id="STIXGeneral-Regular-13" d="M 3046 2112
Q 3046 1683 2963 1302
Q 2880 922 2717 602
Q 2554 282 2266 96
Q 1978 -90 1600 -90
Q 1210 -90 915 108
Q 621 307 461 640
Q 301 973 227 1350
Q 154 1728 154 2150
Q 154 2746 301 3222
Q 448 3699 790 4012
Q 1133 4326 1626 4326
Q 2253 4326 2649 3712
Q 3046 3098 3046 2112
z
M 2432 2080
Q 2432 3091 2217 3625
Q 2003 4160 1587 4160
Q 1190 4160 979 3622
Q 768 3085 768 2106
Q 768 1120 979 598
Q 1190 77 1600 77
Q 2003 77 2217 598
Q 2432 1120 2432 2080
z
" transform="scale(0.015625)"/>
      <path id="STIXGeneral-Regular-c" d="M 186 4224
L 262 4326
Q 992 3891 1408 3148
Q 1824 2406 1824 1581
Q 1824 -166 243 -1133
L 186 -1030
Q 845 -486 1059 54
Q 1274 595 1274 1562
Q 1274 2534 1059 3120
Q 845 3706 186 4224
z
" transform="scale(0.015625)"/>
     </defs>
     <use xlink:href="#HiraginoSans-W4-22" transform="translate(0 0.90625)"/>
     <use xlink:href="#STIXGeneral-Regular-b" transform="translate(76.59993 0.90625)"/>
     <use xlink:href="#STIXGeneral-Regular-425" transform="translate(109.899902 0.90625)"/>
     <use xlink:href="#STIXGeneral-Italic-44" transform="translate(178.399841 0.90625)"/>
     <use xlink:href="#STIXGeneral-Regular-f" transform="translate(228.499786 0.90625)"/>
     <use xlink:href="#STIXGeneral-Regular-13" transform="translate(273.499756 0.90625)"/>
     <use xlink:href="#STIXGeneral-Regular-c" transform="translate(323.49971 0.90625)"/>
    </g>
   </g>
   <g id="text_2">
    <!-- C -->
    <g transform="translate(314.243249 81.339871) scale(0.11 -0.11)">
     <defs>
      <path id="HiraginoSans-W4-24" d="M 4544 3654
C 4390 4064 4269 4269 4026 4506
C 3661 4858 3174 5030 2560 5030
C 1946 5030 1453 4845 1075 4480
C 589 4006 320 3296 320 2458
C 320 1651 570 947 1018 493
C 1389 109 1920 -90 2554 -90
C 3277 -90 3878 173 4237 640
C 4403 858 4493 1062 4608 1459
L 3968 1594
C 3910 1306 3853 1152 3718 966
C 3475 634 3066 448 2573 448
C 1581 448 947 1235 947 2477
C 947 3718 1568 4493 2573 4493
C 3014 4493 3386 4339 3629 4051
C 3763 3891 3834 3763 3923 3488
L 4544 3654
z
" transform="scale(0.015625)"/>
     </defs>
     <use xlink:href="#HiraginoSans-W4-24"/>
    </g>
   </g>
   <g id="text_3">
    <!-- D -->
    <g transform="translate(345.645399 79.246394) scale(0.11 -0.11)">
     <defs>
      <path id="HiraginoSans-W4-25" d="M 531 768
C 531 429 518 237 480 -13
C 710 0 870 0 1210 0
L 2317 0
C 2989 0 3520 192 3910 570
C 4371 1018 4614 1683 4614 2515
C 4614 3309 4390 3942 3949 4365
C 3565 4749 3021 4934 2310 4934
L 1210 4934
C 883 4934 698 4941 480 4954
C 518 4672 531 4493 531 4192
L 531 768
z
M 1126 538
L 1126 4397
L 2310 4397
C 2848 4397 3226 4262 3507 3974
C 3834 3642 3994 3155 3994 2502
C 3994 1856 3814 1325 3475 979
C 3187 678 2803 538 2291 538
L 1126 538
z
" transform="scale(0.015625)"/>
     </defs>
     <use xlink:href="#HiraginoSans-W4-25"/>
    </g>
   </g>
   <g id="text_4">
    <!-- B$(b,0)$ -->
    <g transform="translate(568.94958 162.287636) scale(0.11 -0.11)">
     <defs>
      <path id="HiraginoSans-W4-23" d="M 1216 4934
C 838 4934 672 4941 486 4947
C 525 4710 538 4518 538 4237
L 538 794
C 538 410 525 250 480 -13
C 717 0 896 0 1216 0
L 2694 0
C 3699 0 4269 493 4269 1363
C 4269 1773 4134 2099 3878 2330
C 3706 2483 3558 2547 3251 2605
C 3507 2688 3616 2746 3750 2867
C 3981 3078 4096 3360 4096 3731
C 4096 4506 3565 4934 2624 4934
L 1216 4934
z
M 1133 2848
L 1133 4416
L 2586 4416
C 3181 4416 3488 4160 3488 3667
C 3488 3142 3162 2848 2592 2848
L 1133 2848
z
M 1133 2336
L 2611 2336
C 3296 2336 3648 2022 3648 1421
C 3648 832 3290 518 2630 518
L 1133 518
L 1133 2336
z
" transform="scale(0.015625)"/>
      <path id="STIXGeneral-Italic-45" d="M 1043 1856
L 1050 1856
Q 1370 2387 1654 2604
Q 1939 2822 2285 2822
Q 2618 2822 2822 2617
Q 3027 2413 3027 2054
Q 3027 1562 2726 1062
Q 2426 563 1942 246
Q 1459 -70 979 -70
Q 685 -70 416 32
Q 147 134 147 269
L 147 307
L 1056 3654
Q 1114 3885 1114 3955
Q 1114 4058 1053 4080
Q 992 4102 704 4115
L 704 4224
Q 1184 4282 1683 4371
L 1715 4339
L 1581 3814
L 1043 1856
z
M 2483 1958
Q 2483 2509 2035 2509
Q 1594 2509 1158 1773
Q 954 1427 826 1008
Q 698 589 698 294
Q 698 77 992 77
Q 1414 77 1779 454
Q 2074 762 2278 1187
Q 2483 1613 2483 1958
z
" transform="scale(0.015625)"/>
     </defs>
     <use xlink:href="#HiraginoSans-W4-23" transform="translate(0 0.703125)"/>
     <use xlink:href="#STIXGeneral-Regular-b" transform="translate(72.09993 0.703125)"/>
     <use xlink:href="#STIXGeneral-Italic-45" transform="translate(105.399902 0.703125)"/>
     <use xlink:href="#STIXGeneral-Regular-f" transform="translate(155.399857 0.703125)"/>
     <use xlink:href="#STIXGeneral-Regular-13" transform="translate(200.399826 0.703125)"/>
     <use xlink:href="#STIXGeneral-Regular-c" transform="translate(250.39978 0.703125)"/>
    </g>
   </g>
   <g id="text_5">
    <!-- B$'(b,y_b)$ -->
    <g transform="translate(568.251754 72.965964) scale(0.11 -0.11)">
     <defs>
      <path id="STIXGeneral-Regular-330" d="M 480 2630
L 909 4045
Q 934 4141 960 4195
Q 986 4250 1043 4294
Q 1101 4339 1190 4339
Q 1274 4339 1322 4278
Q 1370 4218 1370 4128
Q 1370 4058 1280 3878
L 602 2573
L 480 2630
z
" transform="scale(0.015625)"/>
      <path id="STIXGeneral-Italic-5c" d="M 1555 1190
L 1690 486
Q 2118 1190 2294 1558
Q 2470 1926 2470 2131
Q 2470 2234 2304 2336
Q 2138 2445 2138 2586
Q 2138 2688 2211 2755
Q 2285 2822 2394 2822
Q 2534 2822 2630 2720
Q 2726 2618 2726 2470
Q 2726 1914 1888 518
Q 1389 -307 918 -812
Q 448 -1318 173 -1318
Q 26 -1318 -64 -1241
Q -154 -1165 -154 -1043
Q -154 -934 -80 -860
Q -6 -787 96 -787
Q 218 -787 314 -876
Q 410 -966 486 -966
Q 602 -966 794 -755
Q 877 -672 1040 -457
Q 1203 -243 1248 -173
Q 1312 -45 1312 51
Q 1312 243 1113 1046
Q 915 1850 787 2176
Q 698 2413 592 2499
Q 486 2586 294 2586
Q 192 2586 96 2560
L 96 2669
Q 237 2694 301 2707
Q 563 2758 986 2822
L 1011 2822
Q 1082 2822 1277 2227
Q 1472 1632 1555 1190
z
" transform="scale(0.015625)"/>
     </defs>
     <use xlink:href="#HiraginoSans-W4-23" transform="translate(0 0.242188)"/>
     <use xlink:href="#STIXGeneral-Regular-330" transform="translate(73.67493 41.542188) scale(0.7)"/>
     <use xlink:href="#STIXGeneral-Regular-b" transform="translate(98.404915 0.242188)"/>
     <use xlink:href="#STIXGeneral-Italic-45" transform="translate(131.704887 0.242188)"/>
     <use xlink:href="#STIXGeneral-Regular-f" transform="translate(181.704842 0.242188)"/>
     <use xlink:href="#STIXGeneral-Italic-5c" transform="translate(226.704811 0.242188)"/>
     <use xlink:href="#STIXGeneral-Italic-45" transform="translate(271.104774 -14.757812) scale(0.7)"/>
     <use xlink:href="#STIXGeneral-Regular-c" transform="translate(310.604742 0.242188)"/>
    </g>
   </g>
   <g id="text_6">
    <!-- O -->
    <g transform="translate(310.754121 158.798509) scale(0.11 -0.11)">
     <defs>
      <path id="HiraginoSans-W4-30" d="M 2586 5030
C 1210 5030 320 4026 320 2470
C 320 902 1203 -96 2579 -96
C 3962 -96 4845 909 4845 2470
C 4845 4038 3968 5030 2586 5030
z
M 2592 442
C 1594 442 941 1248 941 2470
C 941 3699 1587 4493 2586 4493
C 3008 4493 3386 4346 3667 4064
C 4026 3706 4218 3155 4218 2464
C 4218 1229 3584 442 2592 442
z
" transform="scale(0.015625)"/>
     </defs>
     <use xlink:href="#HiraginoSans-W4-30"/>
    </g>
   </g>
   <g id="text_7">
    <!-- $y_0$ -->
    <g transform="translate(311.451946 115.533323) scale(0.11 -0.11)">
     <use xlink:href="#STIXGeneral-Italic-5c" transform="translate(0 0.90625)"/>
     <use xlink:href="#STIXGeneral-Regular-13" transform="translate(44.399963 -14.09375) scale(0.7)"/>
    </g>
   </g>
   <g id="text_8">
    <!-- $r$ -->
    <g transform="translate(314.243249 58.311627) scale(0.11 -0.11)">
     <defs>
      <path id="STIXGeneral-Italic-55" d="M 1126 1427
L 1229 1651
Q 1446 2131 1830 2534
Q 2106 2822 2336 2822
Q 2470 2822 2553 2732
Q 2637 2643 2637 2496
Q 2637 2349 2557 2249
Q 2477 2150 2336 2150
Q 2214 2150 2112 2317
Q 2061 2406 2010 2406
Q 1837 2406 1485 1805
Q 1267 1434 1136 1104
Q 1005 774 774 0
L 288 0
L 806 1869
Q 909 2246 909 2394
Q 909 2560 666 2560
Q 614 2560 467 2541
L 467 2650
L 1459 2822
L 1478 2810
L 1126 1427
z
" transform="scale(0.015625)"/>
     </defs>
     <use xlink:href="#STIXGeneral-Italic-55" transform="translate(0 0.90625)"/>
    </g>
   </g>
   <g id="text_9">
    <!-- $n$ -->
    <g transform="translate(345.645399 237.652797) scale(0.11 -0.11)">
     <defs>
      <path id="STIXGeneral-Italic-51" d="M 2944 749
L 3034 666
Q 2707 218 2534 80
Q 2362 -58 2138 -58
Q 2010 -58 1923 28
Q 1837 115 1837 288
Q 1837 390 1939 768
L 2221 1805
Q 2310 2150 2310 2310
Q 2310 2496 2157 2496
Q 1971 2496 1750 2275
Q 1530 2054 1210 1587
Q 998 1274 899 1024
Q 800 774 570 0
L 90 0
L 704 2240
Q 717 2304 717 2349
Q 717 2445 630 2480
Q 544 2515 301 2522
L 301 2624
Q 550 2675 857 2729
Q 1165 2784 1338 2822
L 1363 2810
L 934 1414
Q 1408 2170 1753 2496
Q 2099 2822 2413 2822
Q 2611 2822 2720 2716
Q 2829 2611 2829 2432
Q 2829 2272 2765 2048
L 2406 749
Q 2317 429 2317 358
Q 2317 243 2419 243
Q 2541 243 2810 582
Q 2854 634 2944 749
z
" transform="scale(0.015625)"/>
     </defs>
     <use xlink:href="#STIXGeneral-Italic-51" transform="translate(0 0.90625)"/>
    </g>
   </g>
   <g id="text_10">
    <!-- $L_{AC}$ -->
    <g transform="translate(174.678136 98.78551) scale(0.11 -0.11)">
     <defs>
      <path id="STIXGeneral-Italic-2f" d="M 3578 1152
L 3206 0
L -51 0
L -51 102
Q 218 128 301 211
Q 384 294 474 602
L 1254 3405
Q 1325 3642 1325 3802
Q 1325 3942 1225 4000
Q 1126 4058 832 4077
L 832 4179
L 2579 4179
L 2579 4077
Q 2285 4058 2147 3955
Q 2010 3853 1933 3584
L 1165 838
Q 1101 595 1101 493
Q 1101 346 1241 288
Q 1382 230 1773 230
Q 2266 230 2480 275
Q 2694 320 2925 474
Q 3187 646 3450 1190
L 3578 1152
z
" transform="scale(0.015625)"/>
      <path id="STIXGeneral-Italic-24" d="M 3610 0
L 2042 0
L 2042 102
Q 2330 115 2432 192
Q 2534 269 2534 442
Q 2534 493 2522 608
L 2394 1446
L 986 1446
L 608 736
Q 467 474 467 314
Q 467 122 864 102
L 864 0
L -326 0
L -326 102
Q -109 147 28 307
Q 166 467 531 1101
L 2355 4275
L 2522 4275
L 3110 736
Q 3174 339 3264 230
Q 3354 122 3610 102
L 3610 0
z
M 2362 1677
L 2074 3360
L 1120 1677
L 2362 1677
z
" transform="scale(0.015625)"/>
      <path id="STIXGeneral-Italic-26" d="M 4410 4250
L 4173 2970
L 4058 2989
Q 3942 4032 3104 4032
Q 2406 4032 1830 3411
Q 1491 3053 1315 2541
Q 1139 2029 1139 1485
Q 1139 173 2259 173
Q 2656 173 2985 339
Q 3315 506 3725 934
L 3840 838
Q 3411 333 2998 109
Q 2586 -115 2093 -115
Q 1344 -115 883 329
Q 422 774 422 1555
Q 422 2214 748 2812
Q 1075 3411 1619 3795
Q 2272 4262 3021 4262
Q 3462 4262 3770 4154
Q 3898 4109 4032 4109
Q 4205 4109 4275 4250
L 4410 4250
z
" transform="scale(0.015625)"/>
     </defs>
     <use xlink:href="#STIXGeneral-Italic-2f" transform="translate(0 0.703125)"/>
     <use xlink:href="#STIXGeneral-Italic-24" transform="translate(55.599945 -14.296875) scale(0.7)"/>
     <use xlink:href="#STIXGeneral-Italic-26" transform="translate(98.369907 -14.296875) scale(0.7)"/>
    </g>
   </g>
   <g id="text_11">
    <!-- $L_{CB}$ -->
    <g transform="translate(453.808362 108.555068) scale(0.11 -0.11)">
     <defs>
      <path id="STIXGeneral-Italic-25" d="M 832 4179
L 2432 4179
Q 3763 4179 3763 3219
Q 3763 2771 3354 2496
Q 3136 2349 2643 2246
L 2643 2240
Q 3450 1997 3450 1280
Q 3450 653 2973 326
Q 2496 0 1690 0
L -51 0
L -51 102
Q 211 141 304 230
Q 397 320 480 614
L 1254 3405
Q 1325 3654 1325 3814
Q 1325 3955 1229 4003
Q 1133 4051 832 4077
L 832 4179
z
M 1587 2323
L 1830 2323
Q 2458 2323 2787 2572
Q 3117 2822 3117 3296
Q 3117 3654 2937 3820
Q 2758 3987 2368 3987
Q 2221 3987 2166 3977
Q 2112 3968 2067 3920
Q 2022 3872 1990 3757
L 1587 2323
z
M 1523 2118
L 1318 1357
Q 1094 506 1094 461
Q 1094 192 1523 192
Q 2086 192 2422 473
Q 2758 755 2758 1280
Q 2758 1568 2636 1773
Q 2515 1978 2330 2042
Q 2112 2118 1523 2118
z
" transform="scale(0.015625)"/>
     </defs>
     <use xlink:href="#STIXGeneral-Italic-2f" transform="translate(0 0.703125)"/>
     <use xlink:href="#STIXGeneral-Italic-26" transform="translate(55.599945 -14.296875) scale(0.7)"/>
     <use xlink:href="#STIXGeneral-Italic-25" transform="translate(102.2899 -14.296875) scale(0.7)"/>
    </g>
   </g>
   <g id="text_12">
    <!-- 平凸レンズ：C から D まではレンズ内 -->
    <g transform="translate(213.783604 18.816) scale(0.132 -0.132)">
     <defs>
      <path id="HiraginoSans-W4-e0f" d="M 2918 4653
L 2918 2342
L 1056 2342
C 717 2342 525 2355 333 2387
L 333 1830
C 525 1862 749 1875 1069 1875
L 2918 1875
L 2918 198
C 2918 -58 2906 -294 2874 -531
L 3475 -531
C 3443 -288 3430 -38 3430 198
L 3430 1875
L 5350 1875
C 5683 1875 5907 1862 6080 1830
L 6080 2387
C 5901 2355 5690 2342 5370 2342
L 3430 2342
L 3430 4653
L 5114 4653
C 5408 4653 5606 4640 5818 4614
L 5818 5152
C 5626 5126 5421 5114 5107 5114
L 1331 5114
C 1011 5114 806 5126 614 5152
L 614 4614
C 826 4640 1030 4653 1318 4653
L 2918 4653
z
M 992 4179
C 1331 3654 1523 3277 1766 2598
L 2246 2842
C 1984 3462 1786 3840 1427 4390
L 992 4179
z
M 4941 4384
C 4685 3674 4486 3309 4058 2765
L 4506 2534
C 4928 3117 5133 3482 5408 4166
L 4941 4384
z
" transform="scale(0.015625)"/>
      <path id="HiraginoSans-W4-ca4" d="M 4506 3168
L 4506 4499
C 4506 4774 4512 4947 4531 5120
C 4352 5101 4186 5094 3910 5094
L 2464 5094
C 2189 5094 2016 5101 1843 5120
C 1862 4902 1869 4749 1869 4499
L 1869 3168
L 1222 3168
C 909 3168 730 3174 506 3194
C 531 2963 538 2778 538 2419
L 538 365
C 538 38 525 -160 499 -384
L 1030 -384
L 1030 -26
L 5382 -26
L 5382 -384
L 5914 -384
C 5882 -154 5875 38 5875 352
L 5875 2406
C 5875 2765 5882 2995 5907 3194
C 5677 3174 5498 3168 5178 3168
L 4506 3168
z
M 5382 2707
L 5382 442
L 1030 442
L 1030 2707
L 1792 2707
C 2067 2707 2234 2701 2362 2694
C 2355 2822 2349 2970 2349 3334
L 2349 4634
L 4026 4634
L 4026 3334
C 4026 2989 4019 2842 4013 2694
C 4154 2701 4320 2707 4602 2707
L 5382 2707
z
" transform="scale(0.015625)"/>
      <path id="HiraginoSans-W4-3e8" d="M 1408 4947
C 1434 4755 1434 4755 1434 4275
L 1421 736
C 1414 461 1408 384 1370 256
L 1670 -115
C 1760 -77 1830 -58 2048 -19
C 3782 320 4762 934 5638 2253
C 5446 2413 5389 2477 5210 2733
C 4851 2061 4435 1613 3814 1216
C 3302 890 2733 685 2003 557
L 2029 4288
C 2029 4640 2035 4787 2061 4947
L 1408 4947
z
" transform="scale(0.015625)"/>
      <path id="HiraginoSans-W4-3ef" d="M 934 4160
C 1504 3821 2016 3405 2496 2893
L 2886 3373
C 2419 3827 2022 4134 1312 4589
L 934 4160
z
M 1030 -19
C 1171 26 1222 38 1427 83
C 2458 314 3174 595 3827 1043
C 4685 1626 5280 2368 5805 3507
C 5581 3654 5510 3725 5331 3949
C 4806 2573 3962 1645 2739 1101
C 2144 838 1376 640 864 621
L 1030 -19
z
" transform="scale(0.015625)"/>
      <path id="HiraginoSans-W4-3b6" d="M 4614 5082
C 4877 4787 5082 4467 5280 4070
L 5658 4282
C 5434 4698 5286 4915 4986 5274
L 4614 5082
z
M 5357 5427
C 5638 5094 5830 4806 6016 4435
L 6387 4646
C 6157 5069 6016 5267 5715 5619
L 5357 5427
z
M 5773 314
C 5037 1082 4454 1594 3648 2195
C 4064 2746 4352 3245 4634 3872
C 4704 4032 4749 4115 4819 4192
L 4448 4621
C 4326 4576 4256 4563 3994 4563
L 1882 4538
C 1459 4538 1331 4544 1133 4570
L 1152 3968
C 1382 4000 1542 4013 1888 4019
L 4064 4058
L 4006 3917
C 3706 3181 3187 2426 2586 1818
C 1939 1171 1293 730 467 384
C 659 192 717 115 838 -115
C 1312 122 1645 320 2086 646
C 2547 986 2880 1286 3302 1773
C 4051 1190 4826 442 5318 -186
L 5773 314
z
" transform="scale(0.015625)"/>
      <path id="HiraginoSans-W4-27f" d="M 3565 4192
L 2842 4192
L 2842 3469
L 3565 3469
L 3565 4192
z
M 3565 672
L 3565 1395
L 2842 1395
L 2842 672
L 3565 672
z
" transform="scale(0.015625)"/>
      <path id="HiraginoSans-W4-1" transform="scale(0.015625)"/>
      <path id="HiraginoSans-W4-354" d="M 582 3027
C 864 3104 1133 3155 1824 3251
C 1619 2438 1440 1920 1146 1286
C 928 806 672 358 480 115
L 1005 -186
C 1197 173 1331 442 1421 621
C 1843 1485 2118 2266 2362 3296
C 2547 3315 2662 3322 2797 3322
C 3366 3322 3546 3117 3546 2464
C 3546 1754 3450 1101 3290 717
C 3206 525 3085 429 2931 429
C 2707 429 2342 544 1990 717
C 2016 563 2022 480 2022 358
C 2022 282 2022 250 2010 141
C 2426 -26 2707 -96 2976 -96
C 3283 -96 3469 -13 3629 198
C 3904 563 4077 1421 4077 2438
C 4077 2982 3994 3277 3770 3501
C 3571 3699 3283 3789 2848 3789
C 2707 3789 2611 3782 2458 3770
C 2490 3923 2560 4326 2592 4499
C 2650 4858 2669 4966 2707 5094
L 2106 5158
C 2106 5120 2106 5088 2106 5075
C 2106 4813 2029 4256 1926 3731
C 1389 3648 749 3578 518 3571
L 582 3027
z
M 4346 3942
C 4954 3309 5395 2496 5632 1574
L 6138 1843
C 5850 2765 5446 3462 4806 4173
L 4346 3942
z
" transform="scale(0.015625)"/>
      <path id="HiraginoSans-W4-392" d="M 1978 4627
C 2541 4365 2541 4365 2989 4211
C 3379 4083 3635 4006 4282 3846
L 4486 4371
C 3795 4480 2707 4826 2253 5082
L 1978 4627
z
M 1453 3968
C 1446 3846 1440 3789 1408 3616
C 1293 2893 1203 2310 1139 1824
C 1114 1606 1107 1562 1088 1446
L 1677 1427
C 1773 1555 1830 1613 1939 1696
C 2406 2029 3040 2227 3674 2227
C 4422 2227 4870 1933 4870 1440
C 4870 819 4205 403 3213 403
C 2662 403 2067 518 1542 723
C 1587 506 1600 416 1600 275
L 1600 205
C 1600 173 1600 147 1600 122
C 2355 -70 2662 -115 3226 -115
C 3910 -115 4429 19 4838 307
C 5216 570 5446 1005 5446 1446
C 5446 2208 4768 2714 3750 2714
C 3040 2714 2342 2522 1907 2202
C 1811 2131 1773 2099 1683 2003
L 1677 2010
C 1690 2067 1696 2080 1709 2157
C 1824 2995 1946 3642 2029 3930
L 1453 3968
z
" transform="scale(0.015625)"/>
      <path id="HiraginoSans-W4-387" d="M 5651 563
C 5562 614 5536 640 5427 710
C 4749 1197 4256 1453 3648 1638
C 3635 1901 3635 1901 3616 2554
C 3949 2573 4518 2624 4768 2662
C 5261 2733 5280 2739 5389 2746
L 5363 3264
C 4998 3149 4371 3059 3610 3014
C 3603 3366 3597 3462 3597 3808
C 4179 3840 4499 3872 5050 3949
C 5389 4000 5389 4000 5510 4006
L 5485 4525
C 5107 4403 4442 4314 3597 4269
C 3603 4755 3616 4986 3642 5133
L 3066 5133
C 3091 4986 3091 4986 3098 4250
C 2906 4243 2682 4237 2560 4237
C 1850 4237 1203 4288 896 4365
L 890 3846
C 928 3853 960 3853 979 3853
C 1005 3853 1050 3853 1107 3846
C 1562 3814 2266 3782 2650 3782
C 2771 3782 2880 3782 3098 3789
C 3098 3686 3104 3622 3110 2989
C 2893 2982 2701 2976 2554 2976
C 1914 2976 1363 3014 1075 3078
L 1069 2579
C 1094 2579 1114 2579 1126 2579
C 1165 2579 1216 2579 1293 2573
C 1702 2534 2016 2522 2394 2522
C 2554 2522 2778 2528 3117 2534
C 3136 1875 3136 1875 3149 1722
C 2963 1747 2803 1760 2586 1760
C 1600 1760 1005 1382 1005 755
C 1005 192 1510 -160 2317 -160
C 2925 -160 3354 0 3520 294
C 3616 461 3674 704 3674 954
C 3674 1011 3674 1043 3667 1120
C 3898 1024 3898 1024 4038 954
C 4576 685 5043 352 5344 32
L 5651 563
z
M 3155 1242
C 3155 1242 3162 1075 3162 1024
C 3162 755 3123 595 3034 499
C 2918 371 2682 301 2355 301
C 1843 301 1536 474 1536 768
C 1536 870 1574 973 1638 1037
C 1798 1203 2138 1306 2528 1306
C 2790 1306 2912 1293 3155 1242
z
" transform="scale(0.015625)"/>
      <path id="HiraginoSans-W4-370" d="M 576 3706
C 915 3776 1440 3827 2682 3910
C 3373 3955 3680 3987 4090 4051
C 3008 3565 2374 2733 2374 1798
C 2374 1222 2643 736 3136 416
C 3514 179 3891 51 4550 -58
C 4653 -70 4678 -77 4755 -96
L 4845 525
C 4538 525 4205 582 3885 691
C 3245 902 2918 1286 2918 1850
C 2918 2451 3283 3040 3936 3482
C 4442 3821 5050 4026 5568 4026
L 5645 4026
L 5600 4595
C 5498 4570 5242 4544 4851 4531
C 3795 4486 2042 4384 1146 4320
C 947 4307 864 4301 774 4301
L 544 4307
L 576 3706
z
M 4506 3104
C 4768 2810 4973 2490 5171 2093
L 5549 2304
C 5325 2720 5178 2938 4877 3296
L 4506 3104
z
M 5248 3450
C 5530 3117 5722 2829 5907 2458
L 6278 2669
C 6048 3091 5907 3290 5606 3642
L 5248 3450
z
" transform="scale(0.015625)"/>
      <path id="HiraginoSans-W4-378" d="M 2381 3270
C 2394 3277 2400 3277 2406 3277
C 2419 3277 2438 3277 2470 3270
C 2483 3270 2522 3270 2586 3264
C 2605 3264 2675 3258 2778 3251
C 3008 3232 3245 3226 3501 3226
C 3738 3226 3898 3232 4205 3245
C 4237 2208 4250 1805 4269 1664
C 4102 1734 3859 1779 3603 1779
C 2874 1779 2355 1382 2355 826
C 2355 243 2829 -122 3590 -122
C 4141 -122 4557 77 4710 416
C 4762 531 4787 672 4787 858
C 4787 909 4787 934 4781 992
C 4813 973 4813 966 4838 954
C 4890 922 4902 915 4909 909
C 5370 627 5376 621 5574 454
C 5658 384 5702 339 5766 269
L 5997 813
C 5920 851 5901 864 5830 922
C 5434 1210 5229 1331 4781 1536
C 4717 2618 4717 2694 4710 3283
C 5101 3328 5382 3373 5722 3450
C 5773 3462 5786 3462 5824 3469
L 5798 3981
C 5613 3898 5184 3808 4710 3750
C 4710 3910 4710 4026 4710 4109
C 4710 4589 4723 4883 4749 5043
L 4179 5043
C 4186 4979 4192 4883 4192 4768
C 4198 4326 4198 4326 4198 3712
C 3987 3706 3840 3699 3590 3699
C 2995 3699 2707 3725 2387 3795
L 2381 3270
z
M 4282 1190
C 4282 1184 4282 1043 4282 1005
C 4282 787 4243 646 4173 557
C 4058 429 3827 346 3565 346
C 3149 346 2867 538 2867 826
C 2867 1126 3168 1318 3629 1318
C 3866 1318 4026 1286 4282 1190
z
M 1331 845
C 1331 922 1331 934 1331 998
C 1331 1101 1331 1101 1325 1158
C 1318 1453 1312 1766 1312 1914
C 1312 2963 1536 4352 1811 4973
L 1203 5056
C 1203 4966 1190 4883 1133 4627
C 890 3501 813 2867 813 2003
C 813 1331 864 762 992 58
C 1024 -122 1024 -134 1024 -179
L 1581 -134
C 1568 -58 1568 -26 1568 6
C 1568 397 1843 1267 2144 1862
L 1741 2042
C 1722 1984 1715 1965 1683 1888
C 1510 1440 1466 1306 1350 838
L 1331 845
z
" transform="scale(0.015625)"/>
      <path id="HiraginoSans-W4-cba" d="M 5286 3968
L 5286 294
C 5286 141 5242 122 4947 122
C 4659 122 4390 147 4077 198
C 4154 0 4179 -102 4205 -326
C 4493 -346 4698 -352 4922 -352
C 5651 -352 5792 -262 5792 186
L 5792 3872
C 5792 4128 5798 4275 5818 4454
C 5606 4429 5434 4422 5146 4422
L 3424 4422
C 3430 4544 3430 4570 3437 4928
C 3450 5152 3456 5254 3488 5395
L 2906 5395
C 2938 5216 2944 5094 2944 4838
C 2944 4717 2938 4602 2931 4422
L 1274 4422
C 998 4422 826 4429 608 4454
C 627 4294 634 4122 634 3866
L 634 275
C 634 -26 621 -243 589 -454
L 1171 -454
C 1146 -288 1139 -102 1139 269
L 1139 3968
L 2893 3968
C 2803 3219 2611 2733 2240 2298
C 1965 1984 1715 1792 1203 1504
C 1357 1363 1459 1242 1542 1101
C 2189 1504 2534 1818 2835 2285
C 2989 2522 3098 2739 3187 3027
C 3501 2323 4070 1702 4883 1178
C 4979 1357 5082 1491 5216 1626
C 4672 1926 4282 2240 3987 2598
C 3693 2950 3507 3264 3341 3680
C 3360 3795 3366 3840 3379 3968
L 5286 3968
z
" transform="scale(0.015625)"/>
     </defs>
     <use xlink:href="#HiraginoSans-W4-e0f"/>
     <use xlink:href="#HiraginoSans-W4-ca4" transform="translate(100 0)"/>
     <use xlink:href="#HiraginoSans-W4-3e8" transform="translate(200 0)"/>
     <use xlink:href="#HiraginoSans-W4-3ef" transform="translate(294 0)"/>
     <use xlink:href="#HiraginoSans-W4-3b6" transform="translate(390 0)"/>
     <use xlink:href="#HiraginoSans-W4-27f" transform="translate(490 0)"/>
     <use xlink:href="#HiraginoSans-W4-24" transform="translate(590 0)"/>
     <use xlink:href="#HiraginoSans-W4-1" transform="translate(666.59375 0)"/>
     <use xlink:href="#HiraginoSans-W4-354" transform="translate(699.890625 0)"/>
     <use xlink:href="#HiraginoSans-W4-392" transform="translate(799.890625 0)"/>
     <use xlink:href="#HiraginoSans-W4-1" transform="translate(899.890625 0)"/>
     <use xlink:href="#HiraginoSans-W4-25" transform="translate(933.1875 0)"/>
     <use xlink:href="#HiraginoSans-W4-1" transform="translate(1010.28125 0)"/>
     <use xlink:href="#HiraginoSans-W4-387" transform="translate(1043.578125 0)"/>
     <use xlink:href="#HiraginoSans-W4-370" transform="translate(1143.578125 0)"/>
     <use xlink:href="#HiraginoSans-W4-378" transform="translate(1243.578125 0)"/>
     <use xlink:href="#HiraginoSans-W4-3e8" transform="translate(1343.578125 0)"/>
     <use xlink:href="#HiraginoSans-W4-3ef" transform="translate(1437.578125 0)"/>
     <use xlink:href="#HiraginoSans-W4-3b6" transform="translate(1533.578125 0)"/>
     <use xlink:href="#HiraginoSans-W4-cba" transform="translate(1633.578125 0)"/>
    </g>
   </g>
  </g>
 </g>
 <defs>
  <clipPath id="p7e5456f38c">
   <rect x="7.2" y="24.816" width="641.99952" height="233.771564"/>
  </clipPath>
 </defs>
</svg>
