<svg xmlns="http://www.w3.org/2000/svg" viewBox="0 0 710 560" role="img" aria-label="Planck spectral energy density at three temperatures"><rect width="710" height="560" fill="white"/><g font-family="Arial,sans-serif" font-size="15"><path d="M85.0 75V460" stroke="#e5e7eb"/><text x="85.0" y="485" text-anchor="middle">0</text><path d="M180.0 75V460" stroke="#e5e7eb"/><text x="180.0" y="485" text-anchor="middle">500</text><path d="M275.0 75V460" stroke="#e5e7eb"/><text x="275.0" y="485" text-anchor="middle">1000</text><path d="M370.0 75V460" stroke="#e5e7eb"/><text x="370.0" y="485" text-anchor="middle">1500</text><path d="M465.0 75V460" stroke="#e5e7eb"/><text x="465.0" y="485" text-anchor="middle">2000</text><path d="M560.0 75V460" stroke="#e5e7eb"/><text x="560.0" y="485" text-anchor="middle">2500</text><path d="M655.0 75V460" stroke="#e5e7eb"/><text x="655.0" y="485" text-anchor="middle">3000</text><path d="M85 460.0H655" stroke="#e5e7eb"/><text x="73" y="465.0" text-anchor="end">0</text><path d="M85 372.5H655" stroke="#e5e7eb"/><text x="73" y="377.5" text-anchor="end">0.25</text><path d="M85 285.0H655" stroke="#e5e7eb"/><text x="73" y="290.0" text-anchor="end">0.5</text><path d="M85 197.5H655" stroke="#e5e7eb"/><text x="73" y="202.5" text-anchor="end">0.75</text><path d="M85 110.0H655" stroke="#e5e7eb"/><text x="73" y="115.0" text-anchor="end">1</text><path d="M85 75V460H655" fill="none" stroke="#111827" stroke-width="1.5"/><text x="85" y="35" font-size="20">ρ(λ,T) / ρ(max, 6000 K)</text><text x="315" y="524">Wavelength λ (nm)</text><polyline points="88.800,460.000 89.370,460.000 89.940,460.000 90.510,460.000 91.080,460.000 91.650,460.000 92.220,460.000 92.790,460.000 93.360,460.000 93.930,460.000 94.500,460.000 95.070,460.000 95.640,460.000 96.210,460.000 96.780,460.000 97.350,460.000 97.920,460.000 98.490,460.000 99.060,460.000 99.630,460.000 100.200,460.000 100.770,460.000 101.340,460.000 101.910,460.000 102.480,459.999 103.050,459.998 103.620,459.997 104.190,459.994 104.760,459.990 105.330,459.983 105.900,459.973 106.470,459.958 107.040,459.936 107.610,459.905 108.180,459.863 108.750,459.805 109.320,459.728 109.890,459.628 110.460,459.499 111.030,459.336 111.600,459.132 112.170,458.882 112.740,458.576 113.310,458.209 113.880,457.771 114.450,457.256 115.020,456.654 115.590,455.956 116.160,455.156 116.730,454.244 117.300,453.212 117.870,452.054 118.440,450.762 119.010,449.328 119.580,447.748 120.150,446.015 120.720,444.124 121.290,442.073 121.860,439.856 122.430,437.473 123.000,434.920 123.570,432.198 124.140,429.305 124.710,426.243 125.280,423.012 125.850,419.616 126.420,416.056 126.990,412.337 127.560,408.462 128.130,404.437 128.700,400.266 129.270,395.955 129.840,391.510 130.410,386.939 130.980,382.247 131.550,377.443 132.120,372.534 132.690,367.528 133.260,362.433 133.830,357.256 134.400,352.007 134.970,346.692 135.540,341.321 136.110,335.902 136.680,330.442 137.250,324.951 137.820,319.435 138.390,313.903 138.960,308.362 139.530,302.821 140.100,297.285 140.670,291.762 141.240,286.260 141.810,280.784 142.380,275.341 142.950,269.938 143.520,264.579 144.090,259.271 144.660,254.018 145.230,248.827 145.800,243.701 146.370,238.645 146.940,233.663 147.510,228.760 148.080,223.938 148.650,219.202 149.220,214.554 149.790,209.997 150.360,205.534 150.930,201.167 151.500,196.899 152.070,192.731 152.640,188.666 153.210,184.703 153.780,180.846 154.350,177.094 154.920,173.450 155.490,169.913 156.060,166.484 156.630,163.163 157.200,159.952 157.770,156.849 158.340,153.854 158.910,150.969 159.480,148.191 160.050,145.521 160.620,142.958 161.190,140.502 161.760,138.151 162.330,135.905 162.900,133.763 163.470,131.724 164.040,129.787 164.610,127.950 165.180,126.212 165.750,124.572 166.320,123.029 166.890,121.581 167.460,120.226 168.030,118.964 168.600,117.793 169.170,116.711 169.740,115.716 170.310,114.807 170.880,113.983 171.450,113.241 172.020,112.581 172.590,111.999 173.160,111.496 173.730,111.068 174.300,110.715 174.870,110.435 175.440,110.225 176.010,110.085 176.580,110.012 177.150,110.005 177.720,110.063 178.290,110.183 178.860,110.364 179.430,110.604 180.000,110.903 180.570,111.257 181.140,111.666 181.710,112.129 182.280,112.642 182.850,113.206 183.420,113.818 183.990,114.478 184.560,115.183 185.130,115.932 185.700,116.724 186.270,117.557 186.840,118.430 187.410,119.342 187.980,120.292 188.550,121.277 189.120,122.297 189.690,123.351 190.260,124.437 190.830,125.555 191.400,126.702 191.970,127.878 192.540,129.082 193.110,130.313 193.680,131.569 194.250,132.850 194.820,134.154 195.390,135.480 195.960,136.828 196.530,138.197 197.100,139.585 197.670,140.992 198.240,142.417 198.810,143.858 199.380,145.316 199.950,146.789 200.520,148.276 201.090,149.777 201.660,151.291 202.230,152.818 202.800,154.355 203.370,155.903 203.940,157.462 204.510,159.030 205.080,160.606 205.650,162.191 206.220,163.783 206.790,165.382 207.360,166.987 207.930,168.598 208.500,170.214 209.070,171.835 209.640,173.460 210.210,175.089 210.780,176.721 211.350,178.356 211.920,179.993 212.490,181.631 213.060,183.271 213.630,184.913 214.200,186.554 214.770,188.196 215.340,189.838 215.910,191.479 216.480,193.120 217.050,194.759 217.620,196.397 218.190,198.032 218.760,199.666 219.330,201.297 219.900,202.926 220.470,204.551 221.040,206.173 221.610,207.792 222.180,209.407 222.750,211.017 223.320,212.624 223.890,214.226 224.460,215.824 225.030,217.417 225.600,219.004 226.170,220.587 226.740,222.164 227.310,223.735 227.880,225.301 228.450,226.860 229.020,228.414 229.590,229.962 230.160,231.503 230.730,233.038 231.300,234.566 231.870,236.087 232.440,237.602 233.010,239.110 233.580,240.611 234.150,242.104 234.720,243.591 235.290,245.070 235.860,246.542 236.430,248.006 237.000,249.463 237.570,250.912 238.140,252.354 238.710,253.787 239.280,255.214 239.850,256.632 240.420,258.042 240.990,259.445 241.560,260.839 242.130,262.226 242.700,263.604 243.270,264.975 243.840,266.337 244.410,267.691 244.980,269.037 245.550,270.375 246.120,271.705 246.690,273.027 247.260,274.340 247.830,275.645 248.400,276.942 248.970,278.231 249.540,279.512 250.110,280.784 250.680,282.048 251.250,283.304 251.820,284.551 252.390,285.791 252.960,287.022 253.530,288.245 254.100,289.460 254.670,290.667 255.240,291.865 255.810,293.056 256.380,294.238 256.950,295.412 257.520,296.579 258.090,297.737 258.660,298.887 259.230,300.029 259.800,301.163 260.370,302.289 260.940,303.407 261.510,304.518 262.080,305.620 262.650,306.715 263.220,307.802 263.790,308.881 264.360,309.952 264.930,311.016 265.500,312.071 266.070,313.120 266.640,314.160 267.210,315.194 267.780,316.219 268.350,317.237 268.920,318.248 269.490,319.251 270.060,320.247 270.630,321.235 271.200,322.217 271.770,323.190 272.340,324.157 272.910,325.117 273.480,326.069 274.050,327.014 274.620,327.952 275.190,328.884 275.760,329.808 276.330,330.725 276.900,331.635 277.470,332.539 278.040,333.436 278.610,334.325 279.180,335.209 279.750,336.085 280.320,336.955 280.890,337.818 281.460,338.675 282.030,339.525 282.600,340.369 283.170,341.206 283.740,342.037 284.310,342.862 284.880,343.680 285.450,344.492 286.020,345.298 286.590,346.097 287.160,346.891 287.730,347.678 288.300,348.460 288.870,349.235 289.440,350.005 290.010,350.768 290.580,351.526 291.150,352.278 291.720,353.024 292.290,353.764 292.860,354.499 293.430,355.227 294.000,355.951 294.570,356.669 295.140,357.381 295.710,358.087 296.280,358.789 296.850,359.484 297.420,360.175 297.990,360.860 298.560,361.540 299.130,362.214 299.700,362.884 300.270,363.548 300.840,364.207 301.410,364.861 301.980,365.510 302.550,366.154 303.120,366.793 303.690,367.427 304.260,368.056 304.830,368.680 305.400,369.300 305.970,369.914 306.540,370.524 307.110,371.129 307.680,371.730 308.250,372.326 308.820,372.917 309.390,373.504 309.960,374.086 310.530,374.663 311.100,375.237 311.670,375.805 312.240,376.370 312.810,376.930 313.380,377.486 313.950,378.037 314.520,378.584 315.090,379.127 315.660,379.666 316.230,380.201 316.800,380.732 317.370,381.258 317.940,381.781 318.510,382.299 319.080,382.813 319.650,383.324 320.220,383.831 320.790,384.333 321.360,384.832 321.930,385.327 322.500,385.819 323.070,386.306 323.640,386.790 324.210,387.270 324.780,387.746 325.350,388.219 325.920,388.688 326.490,389.154 327.060,389.616 327.630,390.074 328.200,390.529 328.770,390.981 329.340,391.429 329.910,391.874 330.480,392.315 331.050,392.753 331.620,393.188 332.190,393.619 332.760,394.048 333.330,394.472 333.900,394.894 334.470,395.313 335.040,395.728 335.610,396.140 336.180,396.549 336.750,396.955 337.320,397.358 337.890,397.758 338.460,398.155 339.030,398.549 339.600,398.940 340.170,399.328 340.740,399.713 341.310,400.095 341.880,400.475 342.450,400.851 343.020,401.225 343.590,401.596 344.160,401.964 344.730,402.329 345.300,402.692 345.870,403.052 346.440,403.409 347.010,403.764 347.580,404.116 348.150,404.465 348.720,404.812 349.290,405.156 349.860,405.498 350.430,405.837 351.000,406.174 351.570,406.508 352.140,406.840 352.710,407.169 353.280,407.496 353.850,407.820 354.420,408.142 354.990,408.462 355.560,408.779 356.130,409.094 356.700,409.407 357.270,409.717 357.840,410.026 358.410,410.332 358.980,410.635 359.550,410.937 360.120,411.236 360.690,411.533 361.260,411.828 361.830,412.121 362.400,412.411 362.970,412.700 363.540,412.986 364.110,413.270 364.680,413.553 365.250,413.833 365.820,414.111 366.390,414.388 366.960,414.662 367.530,414.934 368.100,415.204 368.670,415.473 369.240,415.739 369.810,416.004 370.380,416.266 370.950,416.527 371.520,416.786 372.090,417.043 372.660,417.298 373.230,417.551 373.800,417.803 374.370,418.053 374.940,418.301 375.510,418.547 376.080,418.792 376.650,419.034 377.220,419.275 377.790,419.515 378.360,419.752 378.930,419.988 379.500,420.223 380.070,420.455 380.640,420.686 381.210,420.916 381.780,421.143 382.350,421.370 382.920,421.594 383.490,421.817 384.060,422.039 384.630,422.259 385.200,422.477 385.770,422.694 386.340,422.909 386.910,423.123 387.480,423.335 388.050,423.546 388.620,423.756 389.190,423.963 389.760,424.170 390.330,424.375 390.900,424.579 391.470,424.781 392.040,424.982 392.610,425.181 393.180,425.379 393.750,425.576 394.320,425.772 394.890,425.966 395.460,426.158 396.030,426.350 396.600,426.540 397.170,426.729 397.740,426.916 398.310,427.102 398.880,427.287 399.450,427.471 400.020,427.653 400.590,427.835 401.160,428.015 401.730,428.193 402.300,428.371 402.870,428.547 403.440,428.722 404.010,428.896 404.580,429.069 405.150,429.241 405.720,429.411 406.290,429.580 406.860,429.749 407.430,429.916 408.000,430.082 408.570,430.246 409.140,430.410 409.710,430.573 410.280,430.734 410.850,430.895 411.420,431.054 411.990,431.213 412.560,431.370 413.130,431.526 413.700,431.681 414.270,431.835 414.840,431.989 415.410,432.141 415.980,432.292 416.550,432.442 417.120,432.591 417.690,432.739 418.260,432.887 418.830,433.033 419.400,433.178 419.970,433.322 420.540,433.466 421.110,433.608 421.680,433.750 422.250,433.890 422.820,434.030 423.390,434.169 423.960,434.307 424.530,434.443 425.100,434.580 425.670,434.715 426.240,434.849 426.810,434.982 427.380,435.115 427.950,435.247 428.520,435.378 429.090,435.508 429.660,435.637 430.230,435.765 430.800,435.893 431.370,436.019 431.940,436.145 432.510,436.270 433.080,436.395 433.650,436.518 434.220,436.641 434.790,436.763 435.360,436.884 435.930,437.004 436.500,437.124 437.070,437.243 437.640,437.361 438.210,437.478 438.780,437.595 439.350,437.711 439.920,437.826 440.490,437.940 441.060,438.054 441.630,438.167 442.200,438.279 442.770,438.391 443.340,438.502 443.910,438.612 444.480,438.721 445.050,438.830 445.620,438.938 446.190,439.046 446.760,439.152 447.330,439.258 447.900,439.364 448.470,439.469 449.040,439.573 449.610,439.676 450.180,439.779 450.750,439.881 451.320,439.983 451.890,440.084 452.460,440.184 453.030,440.284 453.600,440.383 454.170,440.481 454.740,440.579 455.310,440.676 455.880,440.773 456.450,440.869 457.020,440.965 457.590,441.060 458.160,441.154 458.730,441.248 459.300,441.341 459.870,441.434 460.440,441.526 461.010,441.617 461.580,441.708 462.150,441.798 462.720,441.888 463.290,441.978 463.860,442.066 464.430,442.154 465.000,442.242 465.570,442.329 466.140,442.416 466.710,442.502 467.280,442.588 467.850,442.673 468.420,442.757 468.990,442.841 469.560,442.925 470.130,443.008 470.700,443.091 471.270,443.173 471.840,443.254 472.410,443.335 472.980,443.416 473.550,443.496 474.120,443.576 474.690,443.655 475.260,443.734 475.830,443.812 476.400,443.890 476.970,443.967 477.540,444.044 478.110,444.120 478.680,444.196 479.250,444.272 479.820,444.347 480.390,444.422 480.960,444.496 481.530,444.570 482.100,444.643 482.670,444.716 483.240,444.788 483.810,444.860 484.380,444.932 484.950,445.003 485.520,445.074 486.090,445.145 486.660,445.215 487.230,445.284 487.800,445.353 488.370,445.422 488.940,445.491 489.510,445.559 490.080,445.626 490.650,445.693 491.220,445.760 491.790,445.827 492.360,445.893 492.930,445.958 493.500,446.024 494.070,446.089 494.640,446.153 495.210,446.217 495.780,446.281 496.350,446.345 496.920,446.408 497.490,446.471 498.060,446.533 498.630,446.595 499.200,446.657 499.770,446.718 500.340,446.779 500.910,446.840 501.480,446.900 502.050,446.960 502.620,447.020 503.190,447.079 503.760,447.138 504.330,447.196 504.900,447.255 505.470,447.313 506.040,447.370 506.610,447.428 507.180,447.485 507.750,447.541 508.320,447.598 508.890,447.654 509.460,447.710 510.030,447.765 510.600,447.820 511.170,447.875 511.740,447.929 512.310,447.984 512.880,448.038 513.450,448.091 514.020,448.144 514.590,448.197 515.160,448.250 515.730,448.303 516.300,448.355 516.870,448.407 517.440,448.458 518.010,448.510 518.580,448.561 519.150,448.611 519.720,448.662 520.290,448.712 520.860,448.762 521.430,448.811 522.000,448.861 522.570,448.910 523.140,448.959 523.710,449.007 524.280,449.056 524.850,449.104 525.420,449.151 525.990,449.199 526.560,449.246 527.130,449.293 527.700,449.340 528.270,449.387 528.840,449.433 529.410,449.479 529.980,449.525 530.550,449.570 531.120,449.615 531.690,449.660 532.260,449.705 532.830,449.750 533.400,449.794 533.970,449.838 534.540,449.882 535.110,449.926 535.680,449.969 536.250,450.012 536.820,450.055 537.390,450.098 537.960,450.140 538.530,450.182 539.100,450.224 539.670,450.266 540.240,450.308 540.810,450.349 541.380,450.390 541.950,450.431 542.520,450.472 543.090,450.512 543.660,450.553 544.230,450.593 544.800,450.632 545.370,450.672 545.940,450.712 546.510,450.751 547.080,450.790 547.650,450.829 548.220,450.867 548.790,450.906 549.360,450.944 549.930,450.982 550.500,451.020 551.070,451.057 551.640,451.095 552.210,451.132 552.780,451.169 553.350,451.206 553.920,451.243 554.490,451.279 555.060,451.315 555.630,451.351 556.200,451.387 556.770,451.423 557.340,451.459 557.910,451.494 558.480,451.529 559.050,451.564 559.620,451.599 560.190,451.634 560.760,451.668 561.330,451.703 561.900,451.737 562.470,451.771 563.040,451.804 563.610,451.838 564.180,451.871 564.750,451.905 565.320,451.938 565.890,451.971 566.460,452.003 567.030,452.036 567.600,452.069 568.170,452.101 568.740,452.133 569.310,452.165 569.880,452.197 570.450,452.228 571.020,452.260 571.590,452.291 572.160,452.322 572.730,452.353 573.300,452.384 573.870,452.415 574.440,452.445 575.010,452.476 575.580,452.506 576.150,452.536 576.720,452.566 577.290,452.596 577.860,452.625 578.430,452.655 579.000,452.684 579.570,452.713 580.140,452.742 580.710,452.771 581.280,452.800 581.850,452.829 582.420,452.857 582.990,452.886 583.560,452.914 584.130,452.942 584.700,452.970 585.270,452.998 585.840,453.025 586.410,453.053 586.980,453.080 587.550,453.107 588.120,453.135 588.690,453.162 589.260,453.188 589.830,453.215 590.400,453.242 590.970,453.268 591.540,453.295 592.110,453.321 592.680,453.347 593.250,453.373 593.820,453.399 594.390,453.424 594.960,453.450 595.530,453.475 596.100,453.501 596.670,453.526 597.240,453.551 597.810,453.576 598.380,453.601 598.950,453.626 599.520,453.650 600.090,453.675 600.660,453.699 601.230,453.723 601.800,453.748 602.370,453.772 602.940,453.796 603.510,453.819 604.080,453.843 604.650,453.867 605.220,453.890 605.790,453.913 606.360,453.937 606.930,453.960 607.500,453.983 608.070,454.006 608.640,454.029 609.210,454.051 609.780,454.074 610.350,454.096 610.920,454.119 611.490,454.141 612.060,454.163 612.630,454.185 613.200,454.207 613.770,454.229 614.340,454.251 614.910,454.273 615.480,454.294 616.050,454.316 616.620,454.337 617.190,454.358 617.760,454.379 618.330,454.401 618.900,454.421 619.470,454.442 620.040,454.463 620.610,454.484 621.180,454.504 621.750,454.525 622.320,454.545 622.890,454.566 623.460,454.586 624.030,454.606 624.600,454.626 625.170,454.646 625.740,454.666 626.310,454.685 626.880,454.705 627.450,454.725 628.020,454.744 628.590,454.763 629.160,454.783 629.730,454.802 630.300,454.821 630.870,454.840 631.440,454.859 632.010,454.878 632.580,454.897 633.150,454.915 633.720,454.934 634.290,454.953 634.860,454.971 635.430,454.989 636.000,455.008 636.570,455.026 637.140,455.044 637.710,455.062 638.280,455.080 638.850,455.098 639.420,455.115 639.990,455.133 640.560,455.151 641.130,455.168 641.700,455.186 642.270,455.203 642.840,455.220 643.410,455.238 643.980,455.255 644.550,455.272 645.120,455.289 645.690,455.306 646.260,455.323 646.830,455.339 647.400,455.356 647.970,455.373 648.540,455.389 649.110,455.406 649.680,455.422 650.250,455.439 650.820,455.455 651.390,455.471 651.960,455.487 652.530,455.503 653.100,455.519 653.670,455.535 654.240,455.551 654.810,455.567" fill="none" stroke="#b91c1c" stroke-width="2.5"/><path d="M470 85H502" stroke="#b91c1c" stroke-width="2.5"/><text x="515" y="90">6000 K</text><polyline points="88.800,460.000 89.370,460.000 89.940,460.000 90.510,460.000 91.080,460.000 91.650,460.000 92.220,460.000 92.790,460.000 93.360,460.000 93.930,460.000 94.500,460.000 95.070,460.000 95.640,460.000 96.210,460.000 96.780,460.000 97.350,460.000 97.920,460.000 98.490,460.000 99.060,460.000 99.630,460.000 100.200,460.000 100.770,460.000 101.340,460.000 101.910,460.000 102.480,460.000 103.050,460.000 103.620,460.000 104.190,460.000 104.760,460.000 105.330,460.000 105.900,460.000 106.470,460.000 107.040,460.000 107.610,460.000 108.180,460.000 108.750,460.000 109.320,459.999 109.890,459.999 110.460,459.999 111.030,459.998 111.600,459.997 112.170,459.996 112.740,459.994 113.310,459.992 113.880,459.989 114.450,459.984 115.020,459.979 115.590,459.972 116.160,459.963 116.730,459.952 117.300,459.939 117.870,459.922 118.440,459.902 119.010,459.878 119.580,459.850 120.150,459.816 120.720,459.776 121.290,459.729 121.860,459.675 122.430,459.613 123.000,459.542 123.570,459.462 124.140,459.371 124.710,459.268 125.280,459.153 125.850,459.026 126.420,458.884 126.990,458.728 127.560,458.556 128.130,458.368 128.700,458.162 129.270,457.939 129.840,457.698 130.410,457.438 130.980,457.157 131.550,456.857 132.120,456.536 132.690,456.194 133.260,455.830 133.830,455.444 134.400,455.036 134.970,454.605 135.540,454.152 136.110,453.676 136.680,453.178 137.250,452.657 137.820,452.113 138.390,451.547 138.960,450.958 139.530,450.348 140.100,449.715 140.670,449.062 141.240,448.387 141.810,447.692 142.380,446.976 142.950,446.241 143.520,445.487 144.090,444.715 144.660,443.925 145.230,443.118 145.800,442.294 146.370,441.455 146.940,440.601 147.510,439.732 148.080,438.851 148.650,437.956 149.220,437.050 149.790,436.132 150.360,435.205 150.930,434.268 151.500,433.323 152.070,432.370 152.640,431.409 153.210,430.443 153.780,429.472 154.350,428.496 154.920,427.516 155.490,426.534 156.060,425.550 156.630,424.564 157.200,423.577 157.770,422.591 158.340,421.606 158.910,420.622 159.480,419.641 160.050,418.662 160.620,417.687 161.190,416.717 161.760,415.751 162.330,414.791 162.900,413.837 163.470,412.889 164.040,411.949 164.610,411.016 165.180,410.092 165.750,409.176 166.320,408.269 166.890,407.372 167.460,406.485 168.030,405.608 168.600,404.742 169.170,403.887 169.740,403.043 170.310,402.211 170.880,401.392 171.450,400.584 172.020,399.789 172.590,399.007 173.160,398.238 173.730,397.482 174.300,396.739 174.870,396.010 175.440,395.295 176.010,394.594 176.580,393.906 177.150,393.233 177.720,392.574 178.290,391.929 178.860,391.299 179.430,390.683 180.000,390.082 180.570,389.495 181.140,388.922 181.710,388.364 182.280,387.821 182.850,387.292 183.420,386.778 183.990,386.278 184.560,385.792 185.130,385.321 185.700,384.864 186.270,384.421 186.840,383.993 187.410,383.578 187.980,383.178 188.550,382.791 189.120,382.419 189.690,382.059 190.260,381.714 190.830,381.382 191.400,381.063 191.970,380.757 192.540,380.465 193.110,380.185 193.680,379.918 194.250,379.664 194.820,379.422 195.390,379.193 195.960,378.976 196.530,378.770 197.100,378.577 197.670,378.396 198.240,378.226 198.810,378.067 199.380,377.920 199.950,377.784 200.520,377.658 201.090,377.544 201.660,377.440 202.230,377.346 202.800,377.263 203.370,377.189 203.940,377.126 204.510,377.072 205.080,377.028 205.650,376.993 206.220,376.968 206.790,376.951 207.360,376.944 207.930,376.945 208.500,376.955 209.070,376.973 209.640,376.999 210.210,377.034 210.780,377.076 211.350,377.126 211.920,377.184 212.490,377.249 213.060,377.322 213.630,377.401 214.200,377.488 214.770,377.581 215.340,377.681 215.910,377.788 216.480,377.900 217.050,378.019 217.620,378.145 218.190,378.276 218.760,378.413 219.330,378.555 219.900,378.703 220.470,378.856 221.040,379.015 221.610,379.179 222.180,379.347 222.750,379.521 223.320,379.699 223.890,379.882 224.460,380.069 225.030,380.261 225.600,380.457 226.170,380.657 226.740,380.861 227.310,381.069 227.880,381.281 228.450,381.496 229.020,381.715 229.590,381.937 230.160,382.162 230.730,382.391 231.300,382.623 231.870,382.858 232.440,383.096 233.010,383.337 233.580,383.580 234.150,383.826 234.720,384.075 235.290,384.326 235.860,384.579 236.430,384.835 237.000,385.093 237.570,385.353 238.140,385.615 238.710,385.879 239.280,386.145 239.850,386.413 240.420,386.682 240.990,386.953 241.560,387.226 242.130,387.500 242.700,387.775 243.270,388.052 243.840,388.330 244.410,388.609 244.980,388.890 245.550,389.172 246.120,389.454 246.690,389.738 247.260,390.022 247.830,390.308 248.400,390.594 248.970,390.881 249.540,391.168 250.110,391.457 250.680,391.746 251.250,392.035 251.820,392.325 252.390,392.615 252.960,392.906 253.530,393.197 254.100,393.488 254.670,393.780 255.240,394.072 255.810,394.363 256.380,394.656 256.950,394.948 257.520,395.240 258.090,395.532 258.660,395.824 259.230,396.117 259.800,396.409 260.370,396.700 260.940,396.992 261.510,397.284 262.080,397.575 262.650,397.866 263.220,398.157 263.790,398.447 264.360,398.737 264.930,399.027 265.500,399.317 266.070,399.605 266.640,399.894 267.210,400.182 267.780,400.469 268.350,400.756 268.920,401.042 269.490,401.328 270.060,401.613 270.630,401.898 271.200,402.182 271.770,402.465 272.340,402.748 272.910,403.030 273.480,403.311 274.050,403.591 274.620,403.871 275.190,404.150 275.760,404.428 276.330,404.706 276.900,404.982 277.470,405.258 278.040,405.533 278.610,405.807 279.180,406.080 279.750,406.353 280.320,406.624 280.890,406.895 281.460,407.164 282.030,407.433 282.600,407.701 283.170,407.967 283.740,408.233 284.310,408.498 284.880,408.762 285.450,409.025 286.020,409.287 286.590,409.548 287.160,409.808 287.730,410.067 288.300,410.325 288.870,410.582 289.440,410.838 290.010,411.093 290.580,411.347 291.150,411.600 291.720,411.852 292.290,412.102 292.860,412.352 293.430,412.601 294.000,412.848 294.570,413.095 295.140,413.340 295.710,413.584 296.280,413.828 296.850,414.070 297.420,414.311 297.990,414.551 298.560,414.790 299.130,415.028 299.700,415.264 300.270,415.500 300.840,415.734 301.410,415.968 301.980,416.200 302.550,416.432 303.120,416.662 303.690,416.891 304.260,417.119 304.830,417.346 305.400,417.571 305.970,417.796 306.540,418.020 307.110,418.242 307.680,418.463 308.250,418.684 308.820,418.903 309.390,419.121 309.960,419.338 310.530,419.554 311.100,419.769 311.670,419.983 312.240,420.195 312.810,420.407 313.380,420.617 313.950,420.827 314.520,421.035 315.090,421.242 315.660,421.448 316.230,421.654 316.800,421.858 317.370,422.061 317.940,422.262 318.510,422.463 319.080,422.663 319.650,422.862 320.220,423.060 320.790,423.256 321.360,423.452 321.930,423.646 322.500,423.840 323.070,424.032 323.640,424.224 324.210,424.414 324.780,424.603 325.350,424.792 325.920,424.979 326.490,425.165 327.060,425.351 327.630,425.535 328.200,425.718 328.770,425.900 329.340,426.082 329.910,426.262 330.480,426.441 331.050,426.619 331.620,426.797 332.190,426.973 332.760,427.148 333.330,427.323 333.900,427.496 334.470,427.668 335.040,427.840 335.610,428.010 336.180,428.180 336.750,428.349 337.320,428.516 337.890,428.683 338.460,428.849 339.030,429.014 339.600,429.178 340.170,429.341 340.740,429.503 341.310,429.664 341.880,429.824 342.450,429.983 343.020,430.142 343.590,430.299 344.160,430.456 344.730,430.612 345.300,430.767 345.870,430.921 346.440,431.074 347.010,431.226 347.580,431.377 348.150,431.528 348.720,431.677 349.290,431.826 349.860,431.974 350.430,432.121 351.000,432.267 351.570,432.413 352.140,432.557 352.710,432.701 353.280,432.844 353.850,432.986 354.420,433.127 354.990,433.268 355.560,433.408 356.130,433.546 356.700,433.684 357.270,433.822 357.840,433.958 358.410,434.094 358.980,434.229 359.550,434.363 360.120,434.496 360.690,434.629 361.260,434.761 361.830,434.892 362.400,435.022 362.970,435.151 363.540,435.280 364.110,435.408 364.680,435.535 365.250,435.662 365.820,435.788 366.390,435.913 366.960,436.037 367.530,436.161 368.100,436.284 368.670,436.406 369.240,436.528 369.810,436.648 370.380,436.768 370.950,436.888 371.520,437.007 372.090,437.125 372.660,437.242 373.230,437.359 373.800,437.475 374.370,437.590 374.940,437.705 375.510,437.818 376.080,437.932 376.650,438.044 377.220,438.156 377.790,438.268 378.360,438.379 378.930,438.489 379.500,438.598 380.070,438.707 380.640,438.815 381.210,438.922 381.780,439.029 382.350,439.136 382.920,439.241 383.490,439.346 384.060,439.451 384.630,439.555 385.200,439.658 385.770,439.761 386.340,439.863 386.910,439.964 387.480,440.065 388.050,440.165 388.620,440.265 389.190,440.364 389.760,440.463 390.330,440.561 390.900,440.658 391.470,440.755 392.040,440.851 392.610,440.947 393.180,441.042 393.750,441.137 394.320,441.231 394.890,441.325 395.460,441.418 396.030,441.510 396.600,441.602 397.170,441.693 397.740,441.784 398.310,441.875 398.880,441.965 399.450,442.054 400.020,442.143 400.590,442.231 401.160,442.319 401.730,442.406 402.300,442.493 402.870,442.579 403.440,442.665 404.010,442.750 404.580,442.835 405.150,442.919 405.720,443.003 406.290,443.087 406.860,443.170 407.430,443.252 408.000,443.334 408.570,443.415 409.140,443.496 409.710,443.577 410.280,443.657 410.850,443.737 411.420,443.816 411.990,443.895 412.560,443.973 413.130,444.051 413.700,444.128 414.270,444.205 414.840,444.282 415.410,444.358 415.980,444.433 416.550,444.508 417.120,444.583 417.690,444.658 418.260,444.732 418.830,444.805 419.400,444.878 419.970,444.951 420.540,445.023 421.110,445.095 421.680,445.167 422.250,445.238 422.820,445.308 423.390,445.378 423.960,445.448 424.530,445.518 425.100,445.587 425.670,445.656 426.240,445.724 426.810,445.792 427.380,445.859 427.950,445.927 428.520,445.993 429.090,446.060 429.660,446.126 430.230,446.191 430.800,446.257 431.370,446.322 431.940,446.386 432.510,446.450 433.080,446.514 433.650,446.578 434.220,446.641 434.790,446.704 435.360,446.766 435.930,446.828 436.500,446.890 437.070,446.951 437.640,447.012 438.210,447.073 438.780,447.134 439.350,447.194 439.920,447.253 440.490,447.313 441.060,447.372 441.630,447.430 442.200,447.489 442.770,447.547 443.340,447.605 443.910,447.662 444.480,447.719 445.050,447.776 445.620,447.833 446.190,447.889 446.760,447.945 447.330,448.000 447.900,448.055 448.470,448.110 449.040,448.165 449.610,448.219 450.180,448.274 450.750,448.327 451.320,448.381 451.890,448.434 452.460,448.487 453.030,448.539 453.600,448.592 454.170,448.644 454.740,448.695 455.310,448.747 455.880,448.798 456.450,448.849 457.020,448.900 457.590,448.950 458.160,449.000 458.730,449.050 459.300,449.099 459.870,449.149 460.440,449.198 461.010,449.246 461.580,449.295 462.150,449.343 462.720,449.391 463.290,449.439 463.860,449.486 464.430,449.533 465.000,449.580 465.570,449.627 466.140,449.673 466.710,449.720 467.280,449.765 467.850,449.811 468.420,449.857 468.990,449.902 469.560,449.947 470.130,449.991 470.700,450.036 471.270,450.080 471.840,450.124 472.410,450.168 472.980,450.211 473.550,450.255 474.120,450.298 474.690,450.341 475.260,450.383 475.830,450.426 476.400,450.468 476.970,450.510 477.540,450.551 478.110,450.593 478.680,450.634 479.250,450.675 479.820,450.716 480.390,450.757 480.960,450.797 481.530,450.837 482.100,450.877 482.670,450.917 483.240,450.957 483.810,450.996 484.380,451.035 484.950,451.074 485.520,451.113 486.090,451.151 486.660,451.190 487.230,451.228 487.800,451.266 488.370,451.303 488.940,451.341 489.510,451.378 490.080,451.416 490.650,451.452 491.220,451.489 491.790,451.526 492.360,451.562 492.930,451.598 493.500,451.634 494.070,451.670 494.640,451.706 495.210,451.741 495.780,451.777 496.350,451.812 496.920,451.847 497.490,451.881 498.060,451.916 498.630,451.950 499.200,451.984 499.770,452.018 500.340,452.052 500.910,452.086 501.480,452.119 502.050,452.153 502.620,452.186 503.190,452.219 503.760,452.252 504.330,452.284 504.900,452.317 505.470,452.349 506.040,452.381 506.610,452.413 507.180,452.445 507.750,452.477 508.320,452.508 508.890,452.540 509.460,452.571 510.030,452.602 510.600,452.633 511.170,452.663 511.740,452.694 512.310,452.724 512.880,452.755 513.450,452.785 514.020,452.815 514.590,452.844 515.160,452.874 515.730,452.904 516.300,452.933 516.870,452.962 517.440,452.991 518.010,453.020 518.580,453.049 519.150,453.077 519.720,453.106 520.290,453.134 520.860,453.162 521.430,453.190 522.000,453.218 522.570,453.246 523.140,453.274 523.710,453.301 524.280,453.329 524.850,453.356 525.420,453.383 525.990,453.410 526.560,453.437 527.130,453.463 527.700,453.490 528.270,453.516 528.840,453.543 529.410,453.569 529.980,453.595 530.550,453.621 531.120,453.646 531.690,453.672 532.260,453.698 532.830,453.723 533.400,453.748 533.970,453.773 534.540,453.798 535.110,453.823 535.680,453.848 536.250,453.873 536.820,453.897 537.390,453.922 537.960,453.946 538.530,453.970 539.100,453.994 539.670,454.018 540.240,454.042 540.810,454.066 541.380,454.089 541.950,454.113 542.520,454.136 543.090,454.160 543.660,454.183 544.230,454.206 544.800,454.229 545.370,454.251 545.940,454.274 546.510,454.297 547.080,454.319 547.650,454.342 548.220,454.364 548.790,454.386 549.360,454.408 549.930,454.430 550.500,454.452 551.070,454.474 551.640,454.495 552.210,454.517 552.780,454.538 553.350,454.560 553.920,454.581 554.490,454.602 555.060,454.623 555.630,454.644 556.200,454.665 556.770,454.685 557.340,454.706 557.910,454.727 558.480,454.747 559.050,454.767 559.620,454.788 560.190,454.808 560.760,454.828 561.330,454.848 561.900,454.868 562.470,454.887 563.040,454.907 563.610,454.927 564.180,454.946 564.750,454.966 565.320,454.985 565.890,455.004 566.460,455.023 567.030,455.042 567.600,455.061 568.170,455.080 568.740,455.099 569.310,455.117 569.880,455.136 570.450,455.155 571.020,455.173 571.590,455.191 572.160,455.210 572.730,455.228 573.300,455.246 573.870,455.264 574.440,455.282 575.010,455.300 575.580,455.317 576.150,455.335 576.720,455.353 577.290,455.370 577.860,455.387 578.430,455.405 579.000,455.422 579.570,455.439 580.140,455.456 580.710,455.473 581.280,455.490 581.850,455.507 582.420,455.524 582.990,455.541 583.560,455.557 584.130,455.574 584.700,455.590 585.270,455.607 585.840,455.623 586.410,455.639 586.980,455.656 587.550,455.672 588.120,455.688 588.690,455.704 589.260,455.720 589.830,455.735 590.400,455.751 590.970,455.767 591.540,455.783 592.110,455.798 592.680,455.814 593.250,455.829 593.820,455.844 594.390,455.860 594.960,455.875 595.530,455.890 596.100,455.905 596.670,455.920 597.240,455.935 597.810,455.950 598.380,455.964 598.950,455.979 599.520,455.994 600.090,456.008 600.660,456.023 601.230,456.037 601.800,456.052 602.370,456.066 602.940,456.080 603.510,456.095 604.080,456.109 604.650,456.123 605.220,456.137 605.790,456.151 606.360,456.165 606.930,456.178 607.500,456.192 608.070,456.206 608.640,456.220 609.210,456.233 609.780,456.247 610.350,456.260 610.920,456.274 611.490,456.287 612.060,456.300 612.630,456.313 613.200,456.327 613.770,456.340 614.340,456.353 614.910,456.366 615.480,456.379 616.050,456.392 616.620,456.404 617.190,456.417 617.760,456.430 618.330,456.443 618.900,456.455 619.470,456.468 620.040,456.480 620.610,456.493 621.180,456.505 621.750,456.517 622.320,456.530 622.890,456.542 623.460,456.554 624.030,456.566 624.600,456.578 625.170,456.590 625.740,456.602 626.310,456.614 626.880,456.626 627.450,456.638 628.020,456.650 628.590,456.661 629.160,456.673 629.730,456.685 630.300,456.696 630.870,456.708 631.440,456.719 632.010,456.731 632.580,456.742 633.150,456.753 633.720,456.765 634.290,456.776 634.860,456.787 635.430,456.798 636.000,456.809 636.570,456.820 637.140,456.831 637.710,456.842 638.280,456.853 638.850,456.864 639.420,456.875 639.990,456.885 640.560,456.896 641.130,456.907 641.700,456.917 642.270,456.928 642.840,456.938 643.410,456.949 643.980,456.959 644.550,456.970 645.120,456.980 645.690,456.990 646.260,457.001 646.830,457.011 647.400,457.021 647.970,457.031 648.540,457.041 649.110,457.051 649.680,457.061 650.250,457.071 650.820,457.081 651.390,457.091 651.960,457.101 652.530,457.111 653.100,457.120 653.670,457.130 654.240,457.140 654.810,457.150" fill="none" stroke="#1d4ed8" stroke-width="2.5"/><path d="M470 115H502" stroke="#1d4ed8" stroke-width="2.5"/><text x="515" y="120">4500 K</text><polyline points="88.800,460.000 89.370,460.000 89.940,460.000 90.510,460.000 91.080,460.000 91.650,460.000 92.220,460.000 92.790,460.000 93.360,460.000 93.930,460.000 94.500,460.000 95.070,460.000 95.640,460.000 96.210,460.000 96.780,460.000 97.350,460.000 97.920,460.000 98.490,460.000 99.060,460.000 99.630,460.000 100.200,460.000 100.770,460.000 101.340,460.000 101.910,460.000 102.480,460.000 103.050,460.000 103.620,460.000 104.190,460.000 104.760,460.000 105.330,460.000 105.900,460.000 106.470,460.000 107.040,460.000 107.610,460.000 108.180,460.000 108.750,460.000 109.320,460.000 109.890,460.000 110.460,460.000 111.030,460.000 111.600,460.000 112.170,460.000 112.740,460.000 113.310,460.000 113.880,460.000 114.450,460.000 115.020,460.000 115.590,460.000 116.160,460.000 116.730,460.000 117.300,460.000 117.870,460.000 118.440,460.000 119.010,460.000 119.580,460.000 120.150,460.000 120.720,460.000 121.290,460.000 121.860,460.000 122.430,460.000 123.000,460.000 123.570,460.000 124.140,460.000 124.710,460.000 125.280,460.000 125.850,459.999 126.420,459.999 126.990,459.999 127.560,459.999 128.130,459.999 128.700,459.998 129.270,459.998 129.840,459.997 130.410,459.997 130.980,459.996 131.550,459.995 132.120,459.995 132.690,459.994 133.260,459.992 133.830,459.991 134.400,459.990 134.970,459.988 135.540,459.986 136.110,459.984 136.680,459.981 137.250,459.978 137.820,459.975 138.390,459.972 138.960,459.968 139.530,459.964 140.100,459.959 140.670,459.954 141.240,459.948 141.810,459.942 142.380,459.935 142.950,459.928 143.520,459.920 144.090,459.911 144.660,459.902 145.230,459.892 145.800,459.881 146.370,459.870 146.940,459.857 147.510,459.844 148.080,459.830 148.650,459.815 149.220,459.799 149.790,459.782 150.360,459.764 150.930,459.745 151.500,459.725 152.070,459.704 152.640,459.682 153.210,459.659 153.780,459.634 154.350,459.608 154.920,459.582 155.490,459.553 156.060,459.524 156.630,459.494 157.200,459.462 157.770,459.429 158.340,459.394 158.910,459.358 159.480,459.321 160.050,459.283 160.620,459.243 161.190,459.202 161.760,459.160 162.330,459.116 162.900,459.072 163.470,459.025 164.040,458.978 164.610,458.929 165.180,458.878 165.750,458.827 166.320,458.774 166.890,458.720 167.460,458.664 168.030,458.608 168.600,458.550 169.170,458.491 169.740,458.430 170.310,458.369 170.880,458.306 171.450,458.242 172.020,458.177 172.590,458.111 173.160,458.044 173.730,457.976 174.300,457.906 174.870,457.836 175.440,457.765 176.010,457.693 176.580,457.619 177.150,457.545 177.720,457.471 178.290,457.395 178.860,457.318 179.430,457.241 180.000,457.163 180.570,457.084 181.140,457.004 181.710,456.924 182.280,456.843 182.850,456.762 183.420,456.680 183.990,456.598 184.560,456.515 185.130,456.431 185.700,456.347 186.270,456.263 186.840,456.179 187.410,456.094 187.980,456.008 188.550,455.923 189.120,455.837 189.690,455.751 190.260,455.665 190.830,455.579 191.400,455.492 191.970,455.406 192.540,455.319 193.110,455.232 193.680,455.146 194.250,455.059 194.820,454.973 195.390,454.886 195.960,454.800 196.530,454.714 197.100,454.628 197.670,454.542 198.240,454.456 198.810,454.371 199.380,454.286 199.950,454.201 200.520,454.117 201.090,454.033 201.660,453.949 202.230,453.865 202.800,453.782 203.370,453.700 203.940,453.618 204.510,453.536 205.080,453.455 205.650,453.374 206.220,453.294 206.790,453.214 207.360,453.135 207.930,453.057 208.500,452.979 209.070,452.901 209.640,452.825 210.210,452.748 210.780,452.673 211.350,452.598 211.920,452.524 212.490,452.451 213.060,452.378 213.630,452.306 214.200,452.235 214.770,452.164 215.340,452.094 215.910,452.025 216.480,451.957 217.050,451.889 217.620,451.822 218.190,451.756 218.760,451.691 219.330,451.626 219.900,451.563 220.470,451.500 221.040,451.438 221.610,451.377 222.180,451.316 222.750,451.257 223.320,451.198 223.890,451.140 224.460,451.083 225.030,451.027 225.600,450.971 226.170,450.917 226.740,450.863 227.310,450.810 227.880,450.758 228.450,450.707 229.020,450.657 229.590,450.607 230.160,450.558 230.730,450.511 231.300,450.464 231.870,450.418 232.440,450.372 233.010,450.328 233.580,450.285 234.150,450.242 234.720,450.200 235.290,450.159 235.860,450.119 236.430,450.079 237.000,450.041 237.570,450.003 238.140,449.966 238.710,449.930 239.280,449.895 239.850,449.861 240.420,449.827 240.990,449.794 241.560,449.762 242.130,449.731 242.700,449.701 243.270,449.671 243.840,449.642 244.410,449.614 244.980,449.587 245.550,449.560 246.120,449.535 246.690,449.510 247.260,449.485 247.830,449.462 248.400,449.439 248.970,449.417 249.540,449.396 250.110,449.375 250.680,449.355 251.250,449.336 251.820,449.318 252.390,449.300 252.960,449.283 253.530,449.267 254.100,449.251 254.670,449.236 255.240,449.222 255.810,449.208 256.380,449.195 256.950,449.183 257.520,449.171 258.090,449.160 258.660,449.150 259.230,449.140 259.800,449.131 260.370,449.122 260.940,449.114 261.510,449.107 262.080,449.100 262.650,449.094 263.220,449.088 263.790,449.083 264.360,449.079 264.930,449.075 265.500,449.071 266.070,449.069 266.640,449.066 267.210,449.065 267.780,449.063 268.350,449.063 268.920,449.063 269.490,449.063 270.060,449.064 270.630,449.065 271.200,449.067 271.770,449.069 272.340,449.072 272.910,449.075 273.480,449.079 274.050,449.083 274.620,449.087 275.190,449.092 275.760,449.098 276.330,449.104 276.900,449.110 277.470,449.117 278.040,449.124 278.610,449.132 279.180,449.140 279.750,449.148 280.320,449.157 280.890,449.166 281.460,449.175 282.030,449.185 282.600,449.195 283.170,449.206 283.740,449.217 284.310,449.228 284.880,449.240 285.450,449.252 286.020,449.264 286.590,449.277 287.160,449.290 287.730,449.303 288.300,449.317 288.870,449.331 289.440,449.345 290.010,449.359 290.580,449.374 291.150,449.389 291.720,449.405 292.290,449.420 292.860,449.436 293.430,449.452 294.000,449.469 294.570,449.485 295.140,449.502 295.710,449.519 296.280,449.537 296.850,449.555 297.420,449.572 297.990,449.591 298.560,449.609 299.130,449.627 299.700,449.646 300.270,449.665 300.840,449.684 301.410,449.704 301.980,449.723 302.550,449.743 303.120,449.763 303.690,449.783 304.260,449.804 304.830,449.824 305.400,449.845 305.970,449.866 306.540,449.887 307.110,449.908 307.680,449.929 308.250,449.951 308.820,449.973 309.390,449.994 309.960,450.016 310.530,450.038 311.100,450.061 311.670,450.083 312.240,450.105 312.810,450.128 313.380,450.151 313.950,450.174 314.520,450.197 315.090,450.220 315.660,450.243 316.230,450.266 316.800,450.290 317.370,450.313 317.940,450.337 318.510,450.361 319.080,450.385 319.650,450.409 320.220,450.433 320.790,450.457 321.360,450.481 321.930,450.505 322.500,450.529 323.070,450.554 323.640,450.578 324.210,450.603 324.780,450.627 325.350,450.652 325.920,450.677 326.490,450.702 327.060,450.727 327.630,450.752 328.200,450.776 328.770,450.802 329.340,450.827 329.910,450.852 330.480,450.877 331.050,450.902 331.620,450.927 332.190,450.953 332.760,450.978 333.330,451.003 333.900,451.029 334.470,451.054 335.040,451.080 335.610,451.105 336.180,451.131 336.750,451.156 337.320,451.182 337.890,451.207 338.460,451.233 339.030,451.258 339.600,451.284 340.170,451.310 340.740,451.335 341.310,451.361 341.880,451.386 342.450,451.412 343.020,451.438 343.590,451.463 344.160,451.489 344.730,451.515 345.300,451.540 345.870,451.566 346.440,451.592 347.010,451.617 347.580,451.643 348.150,451.669 348.720,451.694 349.290,451.720 349.860,451.745 350.430,451.771 351.000,451.796 351.570,451.822 352.140,451.848 352.710,451.873 353.280,451.899 353.850,451.924 354.420,451.949 354.990,451.975 355.560,452.000 356.130,452.026 356.700,452.051 357.270,452.076 357.840,452.102 358.410,452.127 358.980,452.152 359.550,452.177 360.120,452.203 360.690,452.228 361.260,452.253 361.830,452.278 362.400,452.303 362.970,452.328 363.540,452.353 364.110,452.378 364.680,452.403 365.250,452.428 365.820,452.452 366.390,452.477 366.960,452.502 367.530,452.527 368.100,452.551 368.670,452.576 369.240,452.600 369.810,452.625 370.380,452.649 370.950,452.674 371.520,452.698 372.090,452.722 372.660,452.747 373.230,452.771 373.800,452.795 374.370,452.819 374.940,452.843 375.510,452.867 376.080,452.891 376.650,452.915 377.220,452.939 377.790,452.963 378.360,452.987 378.930,453.011 379.500,453.034 380.070,453.058 380.640,453.082 381.210,453.105 381.780,453.128 382.350,453.152 382.920,453.175 383.490,453.199 384.060,453.222 384.630,453.245 385.200,453.268 385.770,453.291 386.340,453.314 386.910,453.337 387.480,453.360 388.050,453.383 388.620,453.406 389.190,453.428 389.760,453.451 390.330,453.474 390.900,453.496 391.470,453.519 392.040,453.541 392.610,453.563 393.180,453.586 393.750,453.608 394.320,453.630 394.890,453.652 395.460,453.674 396.030,453.696 396.600,453.718 397.170,453.740 397.740,453.762 398.310,453.783 398.880,453.805 399.450,453.827 400.020,453.848 400.590,453.870 401.160,453.891 401.730,453.913 402.300,453.934 402.870,453.955 403.440,453.976 404.010,453.997 404.580,454.018 405.150,454.039 405.720,454.060 406.290,454.081 406.860,454.102 407.430,454.123 408.000,454.143 408.570,454.164 409.140,454.184 409.710,454.205 410.280,454.225 410.850,454.246 411.420,454.266 411.990,454.286 412.560,454.306 413.130,454.326 413.700,454.346 414.270,454.366 414.840,454.386 415.410,454.406 415.980,454.426 416.550,454.446 417.120,454.465 417.690,454.485 418.260,454.504 418.830,454.524 419.400,454.543 419.970,454.562 420.540,454.582 421.110,454.601 421.680,454.620 422.250,454.639 422.820,454.658 423.390,454.677 423.960,454.696 424.530,454.715 425.100,454.733 425.670,454.752 426.240,454.771 426.810,454.789 427.380,454.808 427.950,454.826 428.520,454.844 429.090,454.863 429.660,454.881 430.230,454.899 430.800,454.917 431.370,454.935 431.940,454.953 432.510,454.971 433.080,454.989 433.650,455.007 434.220,455.025 434.790,455.042 435.360,455.060 435.930,455.077 436.500,455.095 437.070,455.112 437.640,455.130 438.210,455.147 438.780,455.164 439.350,455.181 439.920,455.198 440.490,455.216 441.060,455.233 441.630,455.249 442.200,455.266 442.770,455.283 443.340,455.300 443.910,455.317 444.480,455.333 445.050,455.350 445.620,455.366 446.190,455.383 446.760,455.399 447.330,455.415 447.900,455.432 448.470,455.448 449.040,455.464 449.610,455.480 450.180,455.496 450.750,455.512 451.320,455.528 451.890,455.544 452.460,455.560 453.030,455.575 453.600,455.591 454.170,455.607 454.740,455.622 455.310,455.638 455.880,455.653 456.450,455.669 457.020,455.684 457.590,455.699 458.160,455.715 458.730,455.730 459.300,455.745 459.870,455.760 460.440,455.775 461.010,455.790 461.580,455.805 462.150,455.820 462.720,455.834 463.290,455.849 463.860,455.864 464.430,455.878 465.000,455.893 465.570,455.907 466.140,455.922 466.710,455.936 467.280,455.951 467.850,455.965 468.420,455.979 468.990,455.993 469.560,456.007 470.130,456.022 470.700,456.036 471.270,456.050 471.840,456.063 472.410,456.077 472.980,456.091 473.550,456.105 474.120,456.119 474.690,456.132 475.260,456.146 475.830,456.159 476.400,456.173 476.970,456.186 477.540,456.200 478.110,456.213 478.680,456.226 479.250,456.240 479.820,456.253 480.390,456.266 480.960,456.279 481.530,456.292 482.100,456.305 482.670,456.318 483.240,456.331 483.810,456.344 484.380,456.356 484.950,456.369 485.520,456.382 486.090,456.395 486.660,456.407 487.230,456.420 487.800,456.432 488.370,456.445 488.940,456.457 489.510,456.469 490.080,456.482 490.650,456.494 491.220,456.506 491.790,456.518 492.360,456.531 492.930,456.543 493.500,456.555 494.070,456.567 494.640,456.579 495.210,456.590 495.780,456.602 496.350,456.614 496.920,456.626 497.490,456.638 498.060,456.649 498.630,456.661 499.200,456.672 499.770,456.684 500.340,456.695 500.910,456.707 501.480,456.718 502.050,456.730 502.620,456.741 503.190,456.752 503.760,456.763 504.330,456.775 504.900,456.786 505.470,456.797 506.040,456.808 506.610,456.819 507.180,456.830 507.750,456.841 508.320,456.852 508.890,456.862 509.460,456.873 510.030,456.884 510.600,456.895 511.170,456.905 511.740,456.916 512.310,456.927 512.880,456.937 513.450,456.948 514.020,456.958 514.590,456.969 515.160,456.979 515.730,456.989 516.300,457.000 516.870,457.010 517.440,457.020 518.010,457.030 518.580,457.040 519.150,457.051 519.720,457.061 520.290,457.071 520.860,457.081 521.430,457.091 522.000,457.101 522.570,457.110 523.140,457.120 523.710,457.130 524.280,457.140 524.850,457.149 525.420,457.159 525.990,457.169 526.560,457.178 527.130,457.188 527.700,457.198 528.270,457.207 528.840,457.217 529.410,457.226 529.980,457.235 530.550,457.245 531.120,457.254 531.690,457.263 532.260,457.273 532.830,457.282 533.400,457.291 533.970,457.300 534.540,457.309 535.110,457.318 535.680,457.327 536.250,457.336 536.820,457.345 537.390,457.354 537.960,457.363 538.530,457.372 539.100,457.381 539.670,457.389 540.240,457.398 540.810,457.407 541.380,457.416 541.950,457.424 542.520,457.433 543.090,457.442 543.660,457.450 544.230,457.459 544.800,457.467 545.370,457.476 545.940,457.484 546.510,457.492 547.080,457.501 547.650,457.509 548.220,457.517 548.790,457.526 549.360,457.534 549.930,457.542 550.500,457.550 551.070,457.558 551.640,457.566 552.210,457.575 552.780,457.583 553.350,457.591 553.920,457.599 554.490,457.607 555.060,457.614 555.630,457.622 556.200,457.630 556.770,457.638 557.340,457.646 557.910,457.654 558.480,457.661 559.050,457.669 559.620,457.677 560.190,457.684 560.760,457.692 561.330,457.700 561.900,457.707 562.470,457.715 563.040,457.722 563.610,457.730 564.180,457.737 564.750,457.745 565.320,457.752 565.890,457.759 566.460,457.767 567.030,457.774 567.600,457.781 568.170,457.788 568.740,457.796 569.310,457.803 569.880,457.810 570.450,457.817 571.020,457.824 571.590,457.831 572.160,457.838 572.730,457.845 573.300,457.853 573.870,457.859 574.440,457.866 575.010,457.873 575.580,457.880 576.150,457.887 576.720,457.894 577.290,457.901 577.860,457.908 578.430,457.914 579.000,457.921 579.570,457.928 580.140,457.935 580.710,457.941 581.280,457.948 581.850,457.954 582.420,457.961 582.990,457.968 583.560,457.974 584.130,457.981 584.700,457.987 585.270,457.994 585.840,458.000 586.410,458.007 586.980,458.013 587.550,458.019 588.120,458.026 588.690,458.032 589.260,458.038 589.830,458.045 590.400,458.051 590.970,458.057 591.540,458.063 592.110,458.069 592.680,458.076 593.250,458.082 593.820,458.088 594.390,458.094 594.960,458.100 595.530,458.106 596.100,458.112 596.670,458.118 597.240,458.124 597.810,458.130 598.380,458.136 598.950,458.142 599.520,458.148 600.090,458.154 600.660,458.159 601.230,458.165 601.800,458.171 602.370,458.177 602.940,458.183 603.510,458.188 604.080,458.194 604.650,458.200 605.220,458.205 605.790,458.211 606.360,458.217 606.930,458.222 607.500,458.228 608.070,458.233 608.640,458.239 609.210,458.244 609.780,458.250 610.350,458.255 610.920,458.261 611.490,458.266 612.060,458.272 612.630,458.277 613.200,458.283 613.770,458.288 614.340,458.293 614.910,458.299 615.480,458.304 616.050,458.309 616.620,458.314 617.190,458.320 617.760,458.325 618.330,458.330 618.900,458.335 619.470,458.340 620.040,458.346 620.610,458.351 621.180,458.356 621.750,458.361 622.320,458.366 622.890,458.371 623.460,458.376 624.030,458.381 624.600,458.386 625.170,458.391 625.740,458.396 626.310,458.401 626.880,458.406 627.450,458.411 628.020,458.416 628.590,458.421 629.160,458.425 629.730,458.430 630.300,458.435 630.870,458.440 631.440,458.445 632.010,458.449 632.580,458.454 633.150,458.459 633.720,458.464 634.290,458.468 634.860,458.473 635.430,458.478 636.000,458.482 636.570,458.487 637.140,458.492 637.710,458.496 638.280,458.501 638.850,458.505 639.420,458.510 639.990,458.514 640.560,458.519 641.130,458.523 641.700,458.528 642.270,458.532 642.840,458.537 643.410,458.541 643.980,458.546 644.550,458.550 645.120,458.554 645.690,458.559 646.260,458.563 646.830,458.567 647.400,458.572 647.970,458.576 648.540,458.580 649.110,458.585 649.680,458.589 650.250,458.593 650.820,458.597 651.390,458.602 651.960,458.606 652.530,458.610 653.100,458.614 653.670,458.618 654.240,458.622 654.810,458.626" fill="none" stroke="#15803d" stroke-width="2.5"/><path d="M470 145H502" stroke="#15803d" stroke-width="2.5"/><text x="515" y="150">3000 K</text></g></svg>