<svg xmlns="http://www.w3.org/2000/svg" width="1000" height="465" viewBox="0 0 1000 465"><rect width="1000" height="465" fill="white"/><g fill="none" stroke="#172534" stroke-width="2"><path d="M70 65H125 M125 46L160 65L125 84Z"/><circle cx="166" cy="65" r="6"/><path d="M172 65H230"/><path d="M340 50H380 M340 80H380 M380 35H409 A30 30 0 0 1 409 95H380Z M439 65H510"/><rect x="80" y="200" width="180" height="150"/><path d="M80 309L96 320L80 331"/><circle cx="74" cy="320" r="5"/><path d="M30 390H55V320H69 M260 235H305"/><rect x="405" y="200" width="180" height="150"/><path d="M405 309L421 320L405 331"/><circle cx="399" cy="320" r="5"/><path d="M355 390H380V320H394 M585 235H630"/><rect x="730" y="200" width="180" height="150"/><path d="M730 309L746 320L730 331"/><circle cx="724" cy="320" r="5"/><path d="M680 390H705V320H719 M910 235H955"/><path d="M30 235H80 M55 235V280H80"/><circle cx="55" cy="235" r="3" fill="#172534"/><path d="M355 235H405 M380 235V280H405"/><circle cx="380" cy="235" r="3" fill="#172534"/><path d="M680 235H730 M680 280H730 M25 390H710"/></g><g fill="#172534" font-family="Arial,sans-serif" font-size="21"><text x="40" y="71">Q₂</text><text x="187" y="52">T₀</text><text x="301" y="55">Q₀</text><text x="301" y="86">Q₁</text><text x="465" y="51">J₂</text><text x="580" y="72">T₀ = ¬Q₂,  J₂ = Q₀Q₁</text><text x="25" y="421">CLK (common falling edge)</text><text x="28" y="229">T₀</text><text x="354" y="229">Q₀</text><text x="680" y="229">J₂</text><text x="690" y="277">1</text><text x="95" y="242">J</text><text x="95" y="287">K</text><text x="220" y="242">Q</text><text x="277" y="226">Q₀</text><text x="132" y="334">JK FF</text><text x="420" y="242">J</text><text x="420" y="287">K</text><text x="545" y="242">Q</text><text x="602" y="226">Q₁</text><text x="457" y="334">JK FF</text><text x="745" y="242">J</text><text x="745" y="287">K</text><text x="870" y="242">Q</text><text x="927" y="226">Q₂</text><text x="782" y="334">JK FF</text><text x="55" y="453" font-size="18">Same labels denote connected nets. Initial state: Q₂Q₁Q₀ = 000.</text></g></svg>