<svg xmlns="http://www.w3.org/2000/svg" viewBox="0 0 850 710" role="img" aria-label="Electric dipole, neutral conducting sphere, surface-current boundary, and spherical coil"><defs><marker id="arrow" markerWidth="7" markerHeight="7" refX="6" refY="3.5" orient="auto"><path d="M0 0L7 3.5L0 7Z" fill="#334155"/></marker></defs><rect width="100%" height="100%" fill="white"/><g font-family="Arial,sans-serif" font-size="17" fill="#0f172a"><text x="30" y="30" font-size="17">A-I: shifted point charge</text><path d="M110 280L110 80" stroke="#334155" stroke-width="1.7" fill="none" marker-end="url(#arrow)"/><path d="M55 260L305 260" stroke="#334155" stroke-width="1.7" fill="none" marker-end="url(#arrow)"/><text x="117" y="82" font-size="17">z</text><text x="228" y="281" font-size="17">x–y plane</text><circle cx="110" cy="260" r="4"/><circle cx="110" cy="216" r="4"/><circle cx="267" cy="116" r="4"/><path d="M110 260L267 116" stroke="#334155" stroke-width="1.7" fill="none"/><text x="87" y="244" font-size="17">d</text><text x="86" y="211" font-size="17">q</text><text x="266" y="105" font-size="17">P</text><text x="204" y="185" font-size="17">r</text><text x="129" y="219" font-size="17">θ</text><text x="102" y="306" font-size="17">O</text><text x="443" y="30" font-size="17">A-II: neutral conducting sphere</text><circle cx="583" cy="193" r="73" fill="#e2e8f0" stroke="#334155"/><path d="M583 298L583 73" stroke="#334155" stroke-width="1.7" fill="none" marker-end="url(#arrow)"/><path d="M480 193L710 193" stroke="#334155" stroke-width="1.7" fill="none" marker-end="url(#arrow)"/><path d="M583 193L531 245" stroke="#334155" stroke-width="1.7" fill="none" marker-end="url(#arrow)"/><text x="535" y="221" font-size="17">a</text><path d="M757 213L757 123" stroke="#334155" stroke-width="1.7" fill="none" marker-end="url(#arrow)"/><text x="768" y="160" font-size="17">E₀</text><path d="M583 199L583 160" stroke="#1d4ed8" stroke-width="1.7" fill="none" marker-end="url(#arrow)"/><text x="593" y="169" font-size="17">p</text><text x="513" y="325" font-size="17">Total charge = 0</text><text x="30" y="385" font-size="17">B-I: planar surface current</text><rect x="50" y="440" width="260" height="92" fill="#e2e8f0"/><rect x="50" y="532" width="260" height="92" fill="#f1f5f9"/><path d="M50 532L330 532" stroke="#334155" stroke-width="1.7" fill="none" marker-end="url(#arrow)"/><path d="M330 582L330 439" stroke="#334155" stroke-width="1.7" fill="none" marker-end="url(#arrow)"/><text x="336" y="446" font-size="17">z</text><text x="339" y="535" font-size="17">x</text><text x="55" y="466" font-size="17">II</text><text x="55" y="614" font-size="17">I</text><text x="65" y="654" font-size="15">+y points into the page</text><circle cx="70" cy="532" r="5" fill="white" stroke="#334155"/><path d="M67 529L73 535M67 535L73 529" stroke="#334155"/><circle cx="96" cy="532" r="5" fill="white" stroke="#334155"/><path d="M93 529L99 535M93 535L99 529" stroke="#334155"/><circle cx="122" cy="532" r="5" fill="white" stroke="#334155"/><path d="M119 529L125 535M119 535L125 529" stroke="#334155"/><circle cx="148" cy="532" r="5" fill="white" stroke="#334155"/><path d="M145 529L151 535M145 535L151 529" stroke="#334155"/><circle cx="174" cy="532" r="5" fill="white" stroke="#334155"/><path d="M171 529L177 535M171 535L177 529" stroke="#334155"/><circle cx="200" cy="532" r="5" fill="white" stroke="#334155"/><path d="M197 529L203 535M197 535L203 529" stroke="#334155"/><circle cx="226" cy="532" r="5" fill="white" stroke="#334155"/><path d="M223 529L229 535M223 535L229 529" stroke="#334155"/><circle cx="252" cy="532" r="5" fill="white" stroke="#334155"/><path d="M249 529L255 535M249 535L255 529" stroke="#334155"/><circle cx="278" cy="532" r="5" fill="white" stroke="#334155"/><path d="M275 529L281 535M275 535L281 529" stroke="#334155"/><circle cx="304" cy="532" r="5" fill="white" stroke="#334155"/><path d="M301 529L307 535M301 535L307 529" stroke="#334155"/><path d="M155 480L238 480" stroke="#334155" stroke-width="1.7" fill="none" marker-end="url(#arrow)"/><path d="M155 586L238 586" stroke="#334155" stroke-width="1.7" fill="none" marker-end="url(#arrow)"/><text x="160" y="470" font-size="17">Hₓᴵᴵ</text><text x="160" y="578" font-size="17">Hₓᴵ</text><text x="110" y="519" font-size="17">jᵧ</text><text x="443" y="385" font-size="17">B-II: spherical coil (section)</text><circle cx="615" cy="532" r="94" fill="#f1f5f9" stroke="#334155"/><path d="M615 646L615 415" stroke="#334155" stroke-width="1.7" fill="none" marker-end="url(#arrow)"/><path d="M493 532L748 532" stroke="#334155" stroke-width="1.7" fill="none" marker-end="url(#arrow)"/><path d="M615 532L681 465" stroke="#334155" stroke-width="1.7" fill="none" marker-end="url(#arrow)"/><text x="625" y="486" font-size="17">θ</text><text x="671" y="508" font-size="17">a</text><text x="622" y="415" font-size="17">z</text><text x="754" y="537" font-size="17">x–y</text><text x="546" y="523" font-size="17">I</text><text x="725" y="430" font-size="17">II</text><path d="M588 570L588 483" stroke="#1d4ed8" stroke-width="1.7" fill="none" marker-end="url(#arrow)"/><text x="540" y="478" font-size="17">H₀</text><text x="458" y="682" font-size="16">j = j(θ)eφ; μ = μ₀ inside and outside</text></g></svg>