<svg xmlns="http://www.w3.org/2000/svg" viewBox="0 0 850 465" role="img"><title>Three-stage positive-edge shift register timing</title><rect width="100%" height="100%" fill="white"/>
<text x="25" y="30" font-family="Arial,sans-serif" font-size="22" fill="#17324d">Time →; outputs initially zero</text>
<path d="M200,48 V430" stroke="#bccbdd" stroke-width="1" stroke-dasharray="5,5"/>
<text x="190" y="58" font-family="Arial,sans-serif" font-size="15" fill="#17324d">1</text>
<path d="M300,48 V430" stroke="#bccbdd" stroke-width="1" stroke-dasharray="5,5"/>
<text x="290" y="58" font-family="Arial,sans-serif" font-size="15" fill="#17324d">2</text>
<path d="M400,48 V430" stroke="#bccbdd" stroke-width="1" stroke-dasharray="5,5"/>
<text x="390" y="58" font-family="Arial,sans-serif" font-size="15" fill="#17324d">3</text>
<path d="M500,48 V430" stroke="#bccbdd" stroke-width="1" stroke-dasharray="5,5"/>
<text x="490" y="58" font-family="Arial,sans-serif" font-size="15" fill="#17324d">4</text>
<path d="M600,48 V430" stroke="#bccbdd" stroke-width="1" stroke-dasharray="5,5"/>
<text x="590" y="58" font-family="Arial,sans-serif" font-size="15" fill="#17324d">5</text>
<path d="M700,48 V430" stroke="#bccbdd" stroke-width="1" stroke-dasharray="5,5"/>
<text x="690" y="58" font-family="Arial,sans-serif" font-size="15" fill="#17324d">6</text>
<text x="25" y="90" font-family="Arial,sans-serif" font-size="20" fill="#17324d">Input</text>
<path d="M145,75 L350,75 L350,100 L450,100 L450,75 L550,75 L550,100 L815,100" fill="none" stroke="#17324d" stroke-width="2"/>
<text x="25" y="165" font-family="Arial,sans-serif" font-size="20" fill="#17324d">Clock</text>
<path d="M145,175 L200,175 L200,150 L250,150 L250,175 L300,175 L300,150 L350,150 L350,175 L400,175 L400,150 L450,150 L450,175 L500,175 L500,150 L550,150 L550,175 L600,175 L600,150 L650,150 L650,175 L700,175 L700,150 L750,150 L750,175 L815,175" fill="none" stroke="#17324d" stroke-width="2"/>
<text x="25" y="240" font-family="Arial,sans-serif" font-size="20" fill="#17324d">Q1</text>
<path d="M145,250 L200,250 L200,225 L300,225 L300,225 L400,225 L400,250 L500,250 L500,225 L600,225 L600,250 L700,250 L700,250 L815,250" fill="none" stroke="#17324d" stroke-width="2"/>
<text x="25" y="315" font-family="Arial,sans-serif" font-size="20" fill="#17324d">Q2</text>
<path d="M145,325 L200,325 L200,325 L300,325 L300,300 L400,300 L400,300 L500,300 L500,325 L600,325 L600,300 L700,300 L700,325 L815,325" fill="none" stroke="#17324d" stroke-width="2"/>
<text x="25" y="390" font-family="Arial,sans-serif" font-size="20" fill="#17324d">Q3</text>
<path d="M145,400 L200,400 L200,400 L300,400 L300,400 L400,400 L400,375 L500,375 L500,375 L600,375 L600,400 L700,400 L700,375 L815,375" fill="none" stroke="#17324d" stroke-width="2"/>
<text x="25" y="450" font-family="Arial,sans-serif" font-size="16" fill="#17324d">Dashed lines mark rising clock edges; all flip-flops sample simultaneously.</text>
</svg>
