<svg xmlns="http://www.w3.org/2000/svg" width="630" height="420" viewBox="0 0 630 420" role="img"><title>Otto-cycle P-V diagram, clockwise: adiabatic compression 1 to 2, isochoric heating 2 to 3, adiabatic expansion 3 to 4, isochoric cooling 4 to 1.</title><rect width="100%" height="100%" fill="white"/><defs><marker id="arrow" markerWidth="7" markerHeight="7" refX="6" refY="3.5" orient="auto-start-reverse"><path d="M0,0 L7,3.5 L0,7 Z" fill="#202020"/></marker></defs><style>text{font-family:Arial,sans-serif;font-size:19px;fill:#202020}.axis{stroke:#202020;stroke-width:1.7;fill:none;marker-end:url(#arrow)}.line{stroke:#202020;stroke-width:2;fill:none}.dash{stroke:#888;stroke-width:1.3;stroke-dasharray:6 5;fill:none}.dim{stroke:#444;stroke-width:1.3;fill:none;marker-start:url(#arrow);marker-end:url(#arrow)}.curve{stroke:#145fa1;stroke-width:2.8;fill:none}</style>
<path class="axis" d="M63 350 V24"/><path class="axis" d="M63 350 H588"/>
<text x="39" y="30">P</text><text x="591" y="360">V</text>
<path class="curve" d="M193.00,226.00 L194.72,228.61 L196.43,231.11 L198.15,233.53 L199.87,235.85 L201.58,238.09 L203.30,240.24 L205.02,242.32 L206.73,244.32 L208.45,246.26 L210.17,248.13 L211.88,249.94 L213.60,251.68 L215.32,253.37 L217.03,255.01 L218.75,256.59 L220.47,258.12 L222.18,259.60 L223.90,261.04 L225.62,262.44 L227.33,263.79 L229.05,265.11 L230.77,266.38 L232.48,267.62 L234.20,268.83 L235.92,269.99 L237.63,271.13 L239.35,272.24 L241.07,273.31 L242.78,274.36 L244.50,275.38 L246.22,276.37 L247.93,277.34 L249.65,278.28 L251.37,279.20 L253.08,280.09 L254.80,280.96 L256.52,281.81 L258.23,282.64 L259.95,283.45 L261.67,284.24 L263.38,285.01 L265.10,285.77 L266.82,286.50 L268.53,287.22 L270.25,287.92 L271.97,288.61 L273.68,289.28 L275.40,289.94 L277.12,290.58 L278.83,291.21 L280.55,291.82 L282.27,292.42 L283.98,293.01 L285.70,293.59 L287.42,294.15 L289.13,294.70 L290.85,295.24 L292.57,295.77 L294.28,296.29 L296.00,296.80 L297.72,297.30 L299.43,297.79 L301.15,298.27 L302.87,298.74 L304.58,299.20 L306.30,299.65 L308.02,300.10 L309.73,300.53 L311.45,300.96 L313.17,301.38 L314.88,301.79 L316.60,302.20 L318.32,302.60 L320.03,302.99 L321.75,303.37 L323.47,303.75 L325.18,304.12 L326.90,304.48 L328.62,304.84 L330.33,305.19 L332.05,305.53 L333.77,305.87 L335.48,306.21 L337.20,306.53 L338.92,306.86 L340.63,307.17 L342.35,307.49 L344.07,307.79 L345.78,308.10 L347.50,308.39 L349.22,308.69 L350.93,308.97 L352.65,309.26 L354.37,309.54 L356.08,309.81 L357.80,310.08 L359.52,310.35 L361.23,310.61 L362.95,310.87 L364.67,311.12 L366.38,311.37 L368.10,311.62 L369.82,311.86 L371.53,312.10 L373.25,312.34 L374.97,312.57 L376.68,312.80 L378.40,313.03 L380.12,313.25 L381.83,313.47 L383.55,313.69 L385.27,313.90 L386.98,314.11 L388.70,314.32 L390.42,314.53 L392.13,314.73 L393.85,314.93 L395.57,315.13 L397.28,315.32 L399.00,315.51 L400.72,315.70 L402.43,315.89 L404.15,316.07 L405.87,316.26 L407.58,316.43 L409.30,316.61 L411.02,316.79 L412.73,316.96 L414.45,317.13 L416.17,317.30 L417.88,317.46 L419.60,317.63 L421.32,317.79 L423.03,317.95 L424.75,318.11 L426.47,318.27 L428.18,318.42 L429.90,318.57 L431.62,318.72 L433.33,318.87 L435.05,319.02 L436.77,319.16 L438.48,319.31 L440.20,319.45 L441.92,319.59 L443.63,319.73 L445.35,319.86 L447.07,320.00 L448.78,320.13 L450.50,320.27 L452.22,320.40 L453.93,320.53 L455.65,320.65 L457.37,320.78 L459.08,320.91 L460.80,321.03 L462.52,321.15 L464.23,321.27 L465.95,321.39 L467.67,321.51 L469.38,321.63 L471.10,321.74 L472.82,321.86 L474.53,321.97 L476.25,322.08 L477.97,322.19 L479.68,322.30 L481.40,322.41 L483.12,322.52 L484.83,322.63 L486.55,322.73 L488.27,322.84 L489.98,322.94 L491.70,323.04 L493.42,323.14 L495.13,323.24 L496.85,323.34 L498.57,323.44 L500.28,323.54 L502.00,323.63"/><path class="curve" d="M193.00,45.50 L194.72,52.24 L196.43,58.71 L198.15,64.94 L199.87,70.94 L201.58,76.72 L203.30,82.29 L205.02,87.66 L206.73,92.84 L208.45,97.84 L210.17,102.67 L211.88,107.33 L213.60,111.84 L215.32,116.21 L217.03,120.43 L218.75,124.52 L220.47,128.48 L222.18,132.31 L223.90,136.03 L225.62,139.64 L227.33,143.13 L229.05,146.53 L230.77,149.82 L232.48,153.02 L234.20,156.13 L235.92,159.15 L237.63,162.09 L239.35,164.95 L241.07,167.73 L242.78,170.43 L244.50,173.06 L246.22,175.62 L247.93,178.12 L249.65,180.55 L251.37,182.92 L253.08,185.23 L254.80,187.48 L256.52,189.68 L258.23,191.82 L259.95,193.91 L261.67,195.96 L263.38,197.95 L265.10,199.89 L266.82,201.79 L268.53,203.65 L270.25,205.47 L271.97,207.24 L273.68,208.97 L275.40,210.67 L277.12,212.33 L278.83,213.95 L280.55,215.54 L282.27,217.09 L283.98,218.61 L285.70,220.10 L287.42,221.55 L289.13,222.98 L290.85,224.38 L292.57,225.75 L294.28,227.09 L296.00,228.41 L297.72,229.69 L299.43,230.96 L301.15,232.20 L302.87,233.41 L304.58,234.60 L306.30,235.77 L308.02,236.92 L309.73,238.05 L311.45,239.15 L313.17,240.24 L314.88,241.30 L316.60,242.35 L318.32,243.37 L320.03,244.38 L321.75,245.37 L323.47,246.34 L325.18,247.30 L326.90,248.24 L328.62,249.16 L330.33,250.07 L332.05,250.96 L333.77,251.84 L335.48,252.70 L337.20,253.55 L338.92,254.38 L340.63,255.20 L342.35,256.01 L344.07,256.80 L345.78,257.58 L347.50,258.35 L349.22,259.10 L350.93,259.85 L352.65,260.58 L354.37,261.30 L356.08,262.01 L357.80,262.71 L359.52,263.40 L361.23,264.08 L362.95,264.74 L364.67,265.40 L366.38,266.05 L368.10,266.69 L369.82,267.32 L371.53,267.94 L373.25,268.55 L374.97,269.15 L376.68,269.74 L378.40,270.33 L380.12,270.90 L381.83,271.47 L383.55,272.03 L385.27,272.58 L386.98,273.13 L388.70,273.67 L390.42,274.20 L392.13,274.72 L393.85,275.24 L395.57,275.74 L397.28,276.25 L399.00,276.74 L400.72,277.23 L402.43,277.71 L404.15,278.19 L405.87,278.66 L407.58,279.12 L409.30,279.58 L411.02,280.03 L412.73,280.48 L414.45,280.92 L416.17,281.35 L417.88,281.78 L419.60,282.21 L421.32,282.63 L423.03,283.04 L424.75,283.45 L426.47,283.85 L428.18,284.25 L429.90,284.64 L431.62,285.03 L433.33,285.42 L435.05,285.80 L436.77,286.17 L438.48,286.54 L440.20,286.91 L441.92,287.27 L443.63,287.63 L445.35,287.98 L447.07,288.33 L448.78,288.68 L450.50,289.02 L452.22,289.36 L453.93,289.69 L455.65,290.02 L457.37,290.35 L459.08,290.67 L460.80,290.99 L462.52,291.31 L464.23,291.62 L465.95,291.93 L467.67,292.24 L469.38,292.54 L471.10,292.84 L472.82,293.13 L474.53,293.43 L476.25,293.71 L477.97,294.00 L479.68,294.28 L481.40,294.57 L483.12,294.84 L484.83,295.12 L486.55,295.39 L488.27,295.66 L489.98,295.92 L491.70,296.19 L493.42,296.45 L495.13,296.71 L496.85,296.96 L498.57,297.22 L500.28,297.47 L502.00,297.71"/>
<path class="axis" d="M193 226 V45.5"/><path class="axis" d="M502 297.71 V323.63"/>
<path class="curve" marker-end="url(#arrow)" d="M259.95,193.91 L264.58,199.32 L269.22,204.38 L273.86,209.14 L278.49,213.63 L283.13,217.85 L287.76,221.84 L292.39,225.61 L297.03,229.18 L301.67,232.56 L306.30,235.77"/>
<path class="curve" marker-end="url(#arrow)" d="M337.20,306.53 L331.02,305.33 L324.84,304.04 L318.66,302.67 L312.48,301.21 L306.30,299.65 L300.12,297.98 L293.94,296.19 L287.76,294.26 L281.58,292.18 L275.40,289.94"/>
<text x="170" y="236">2</text><text x="169" y="50">3</text><text x="514" y="299">4</text><text x="514" y="331">1</text>
<path class="dash" d="M193 226 V350 M502 323 V350"/>
<text x="156" y="382">V₂ = V₃</text><text x="462" y="382">V₁ = V₄</text>
<text x="340" y="161">3 → 4: PVᵞ = const.</text><text x="204" y="412">1 → 2: PVᵞ = const.</text>
</svg>
