<svg xmlns="http://www.w3.org/2000/svg" width="650" height="420" viewBox="0 0 650 420"><title>Undirected graph, start 0, end 5</title><rect width="650" height="420" fill="white"/><g font-family="serif" font-size="20"><line data-u="0" data-v="1" data-weight="5" x1="90" y1="170" x2="285" y2="70" stroke="#596e80" stroke-width="2"/><text x="195.5" y="112.0" paint-order="stroke" stroke="white" stroke-width="6" fill="#273c4b">5</text><line data-u="0" data-v="2" data-weight="4" x1="90" y1="170" x2="310" y2="210" stroke="#596e80" stroke-width="2"/><text x="208.0" y="182.0" paint-order="stroke" stroke="white" stroke-width="6" fill="#273c4b">4</text><line data-u="0" data-v="3" data-weight="2" x1="90" y1="170" x2="155" y2="305" stroke="#596e80" stroke-width="2"/><text x="130.5" y="229.5" paint-order="stroke" stroke="white" stroke-width="6" fill="#273c4b">2</text><line data-u="1" data-v="2" data-weight="2" x1="285" y1="70" x2="310" y2="210" stroke="#596e80" stroke-width="2"/><text x="305.5" y="132.0" paint-order="stroke" stroke="white" stroke-width="6" fill="#273c4b">2</text><line data-u="2" data-v="3" data-weight="3" x1="310" y1="210" x2="155" y2="305" stroke="#596e80" stroke-width="2"/><text x="240.5" y="249.5" paint-order="stroke" stroke="white" stroke-width="6" fill="#273c4b">3</text><line data-u="2" data-v="4" data-weight="2" x1="310" y1="210" x2="410" y2="345" stroke="#596e80" stroke-width="2"/><text x="368.0" y="269.5" paint-order="stroke" stroke="white" stroke-width="6" fill="#273c4b">2</text><line data-u="3" data-v="4" data-weight="6" x1="155" y1="305" x2="410" y2="345" stroke="#596e80" stroke-width="2"/><text x="290.5" y="317.0" paint-order="stroke" stroke="white" stroke-width="6" fill="#273c4b">6</text><line data-u="4" data-v="5" data-weight="4" x1="410" y1="345" x2="520" y2="165" stroke="#596e80" stroke-width="2"/><text x="473.0" y="247.0" paint-order="stroke" stroke="white" stroke-width="6" fill="#273c4b">4</text><line data-u="1" data-v="5" data-weight="7" x1="285" y1="70" x2="520" y2="165" stroke="#596e80" stroke-width="2"/><text x="410.5" y="109.5" paint-order="stroke" stroke="white" stroke-width="6" fill="#273c4b">7</text><circle cx="90" cy="170" r="18" fill="white" stroke="#273c4b" stroke-width="2"/><text x="90" y="177" text-anchor="middle">0</text><circle cx="285" cy="70" r="18" fill="white" stroke="#273c4b" stroke-width="2"/><text x="285" y="77" text-anchor="middle">1</text><circle cx="310" cy="210" r="18" fill="white" stroke="#273c4b" stroke-width="2"/><text x="310" y="217" text-anchor="middle">2</text><circle cx="155" cy="305" r="18" fill="white" stroke="#273c4b" stroke-width="2"/><text x="155" y="312" text-anchor="middle">3</text><circle cx="410" cy="345" r="18" fill="white" stroke="#273c4b" stroke-width="2"/><text x="410" y="352" text-anchor="middle">4</text><circle cx="520" cy="165" r="18" fill="white" stroke="#273c4b" stroke-width="2"/><text x="520" y="172" text-anchor="middle">5</text><text x="20" y="177" font-size="16">start</text><text x="547" y="172" font-size="16">end</text></g></svg>